<?xml version="1.0" ?><svg style="enable-background:new 0 0 24 24;" version="1.1" viewBox="0 0 24 24" xml:space="preserve" xmlns="http://www.w3.org/2000/svg" xmlns:xlink="http://www.w3.org/1999/xlink"><style type="text/css">
	.st0{opacity:0.2;fill:none;stroke:#000000;stroke-width:5.000000e-02;stroke-miterlimit:10;}
</style><g id="grid_system"/><g id="_icons"><path d="M5,10v5.5c-0.6,0.5-1,1.2-1,2C4,18.9,5.1,20,6.5,20h2.7c0.4,1.2,1.5,2,2.8,2s2.4-0.8,2.8-2h2.7c1.4,0,2.5-1.1,2.5-2.5   c0-0.8-0.4-1.5-1-2V10c0-1.9-0.7-3.6-2.1-4.9c-0.4-0.4-0.9-0.8-1.4-1.1c-2.1-1.2-4.9-1.2-7,0C6.3,5.2,5,7.5,5,10z M17.5,18H14h-4   H6.5C6.2,18,6,17.8,6,17.5S6.2,17,6.5,17h11c0.3,0,0.5,0.2,0.5,0.5S17.8,18,17.5,18z M14.5,5.7c0.4,0.2,0.7,0.5,1,0.8   C16.5,7.4,17,8.7,17,10v5H7v-5c0-1.8,1-3.4,2.5-4.3C11,4.8,13,4.8,14.5,5.7z"/></g></svg>