<svg width="41" height="22" viewBox="0 0 41 22" fill="none" xmlns="http://www.w3.org/2000/svg">
<path d="M9.16279 12.1864C9.03035 12.3148 8.9695 12.5004 8.99967 12.6824L9.45427 15.1983C9.49262 15.4116 9.40262 15.6274 9.22416 15.7506C9.04927 15.8785 8.8166 15.8938 8.62586 15.7915L6.36103 14.6103C6.28228 14.5683 6.19484 14.5458 6.10535 14.5433H5.96677C5.9187 14.5504 5.87166 14.5658 5.8287 14.5893L3.56336 15.7762C3.45137 15.8324 3.32456 15.8524 3.20029 15.8324C2.89757 15.7752 2.69558 15.4867 2.74518 15.1825L3.20029 12.6666C3.23047 12.483 3.16961 12.2963 3.03717 12.166L1.19064 10.3762C1.0362 10.2263 0.982511 10.0014 1.05308 9.79834C1.1216 9.59584 1.29649 9.44806 1.50768 9.41482L4.04916 9.04612C4.24245 9.02618 4.41223 8.90857 4.49916 8.7347L5.61904 6.43868C5.64564 6.38754 5.6799 6.3405 5.72132 6.30061L5.76734 6.26482C5.79137 6.23823 5.81899 6.21624 5.84967 6.19834L5.90541 6.17789L5.99234 6.14209H6.20762C6.3999 6.16203 6.56916 6.27709 6.65762 6.44891L7.79234 8.7347C7.87416 8.90192 8.03319 9.018 8.21677 9.04612L10.7582 9.41482C10.973 9.4455 11.1525 9.59379 11.2236 9.79834C11.2906 10.0034 11.2328 10.2284 11.0753 10.3762L9.16279 12.1864Z" fill="#FDA01C"/>
<path d="M20.19 14.099C19.6693 14.099 19.2183 14.0183 18.837 13.857C18.463 13.6883 18.1733 13.4573 17.968 13.164C17.77 12.8633 17.671 12.5113 17.671 12.108C17.671 11.866 17.704 11.6387 17.77 11.426C17.836 11.2133 17.935 11.0153 18.067 10.832C18.2063 10.6413 18.375 10.458 18.573 10.282C18.7783 10.106 19.013 9.93367 19.277 9.765L19.64 9.534L19.497 9.743C19.1523 9.37633 18.9067 9.05367 18.76 8.775C18.6207 8.489 18.551 8.192 18.551 7.884C18.551 7.53933 18.6317 7.23867 18.793 6.982C18.9543 6.718 19.1817 6.51267 19.475 6.366C19.7757 6.21933 20.124 6.146 20.52 6.146C21.048 6.146 21.477 6.289 21.807 6.575C22.137 6.861 22.302 7.24967 22.302 7.741C22.302 8.01233 22.247 8.26533 22.137 8.5C22.0343 8.73467 21.862 8.96567 21.62 9.193C21.378 9.42033 21.048 9.66233 20.63 9.919L20.641 9.666L22.654 11.899H22.434C22.5367 11.723 22.6247 11.525 22.698 11.305C22.7787 11.085 22.8447 10.8467 22.896 10.59C22.9547 10.3333 22.995 10.062 23.017 9.776C23.039 9.63667 23.0867 9.534 23.16 9.468C23.2333 9.39467 23.336 9.358 23.468 9.358C23.6073 9.358 23.7137 9.39833 23.787 9.479C23.8603 9.55967 23.8897 9.67333 23.875 9.82C23.8457 10.1867 23.7907 10.535 23.71 10.865C23.6293 11.1877 23.5303 11.4883 23.413 11.767C23.2957 12.0457 23.1637 12.2987 23.017 12.526L23.006 12.251L24.095 13.417C24.1977 13.5197 24.2453 13.6223 24.238 13.725C24.238 13.8277 24.1977 13.912 24.117 13.978C24.0363 14.044 23.93 14.077 23.798 14.077C23.6807 14.077 23.5853 14.055 23.512 14.011C23.4387 13.967 23.358 13.8973 23.27 13.802L22.456 12.911H22.709C22.401 13.285 22.027 13.5783 21.587 13.791C21.1543 13.9963 20.6887 14.099 20.19 14.099ZM20.234 13.285C20.6447 13.285 21.0077 13.2043 21.323 13.043C21.6383 12.8743 21.917 12.625 22.159 12.295L22.137 12.592L19.816 10.095L20.212 10.117L19.882 10.337C19.5887 10.5277 19.3503 10.711 19.167 10.887C18.991 11.0557 18.8627 11.2317 18.782 11.415C18.7013 11.5983 18.661 11.8073 18.661 12.042C18.661 12.4307 18.7967 12.735 19.068 12.955C19.3393 13.175 19.728 13.285 20.234 13.285ZM20.52 6.894C20.212 6.894 19.9627 6.98567 19.772 7.169C19.5813 7.345 19.486 7.57967 19.486 7.873C19.486 8.01967 19.508 8.16267 19.552 8.302C19.6033 8.434 19.6877 8.58067 19.805 8.742C19.9297 8.896 20.102 9.094 20.322 9.336L20.069 9.347C20.4063 9.13433 20.674 8.94733 20.872 8.786C21.07 8.61733 21.213 8.456 21.301 8.302C21.389 8.14067 21.433 7.972 21.433 7.796C21.433 7.51733 21.3487 7.29733 21.18 7.136C21.0113 6.97467 20.7913 6.894 20.52 6.894ZM30.2981 14.099C29.8654 14.099 29.5024 14.0183 29.2091 13.857C28.9231 13.6957 28.7104 13.4573 28.5711 13.142C28.4317 12.8267 28.3621 12.4307 28.3621 11.954V9.072C28.3621 8.90333 28.4024 8.77867 28.4831 8.698C28.5711 8.61 28.6957 8.566 28.8571 8.566C29.0184 8.566 29.1431 8.61 29.2311 8.698C29.3191 8.77867 29.3631 8.90333 29.3631 9.072V11.954C29.3631 12.4087 29.4547 12.746 29.6381 12.966C29.8214 13.1787 30.1111 13.285 30.5071 13.285C30.9471 13.285 31.3027 13.1383 31.5741 12.845C31.8527 12.5517 31.9921 12.163 31.9921 11.679V9.072C31.9921 8.90333 32.0324 8.77867 32.1131 8.698C32.2011 8.61 32.3257 8.566 32.4871 8.566C32.6484 8.566 32.7731 8.61 32.8611 8.698C32.9491 8.77867 32.9931 8.90333 32.9931 9.072V13.56C32.9931 13.9047 32.8317 14.077 32.5091 14.077C32.3477 14.077 32.2231 14.033 32.1351 13.945C32.0544 13.857 32.0141 13.7287 32.0141 13.56V12.603L32.1571 12.79C32.0104 13.2153 31.7721 13.5417 31.4421 13.769C31.1194 13.989 30.7381 14.099 30.2981 14.099ZM35.0988 16.057C34.9448 16.057 34.8238 16.013 34.7358 15.925C34.6478 15.837 34.6038 15.7123 34.6038 15.551V9.072C34.6038 8.90333 34.6478 8.77867 34.7358 8.698C34.8238 8.61 34.9448 8.566 35.0988 8.566C35.2601 8.566 35.3811 8.61 35.4618 8.698C35.5498 8.77867 35.5938 8.90333 35.5938 9.072V10.073L35.4728 9.875C35.5901 9.47167 35.8211 9.149 36.1658 8.907C36.5104 8.665 36.9248 8.544 37.4088 8.544C37.8854 8.544 38.2998 8.65767 38.6518 8.885C39.0038 9.105 39.2788 9.424 39.4768 9.842C39.6748 10.2527 39.7738 10.744 39.7738 11.316C39.7738 11.8807 39.6748 12.3757 39.4768 12.801C39.2861 13.219 39.0111 13.5417 38.6518 13.769C38.2998 13.989 37.8854 14.099 37.4088 14.099C36.9321 14.099 36.5214 13.978 36.1768 13.736C35.8321 13.494 35.6011 13.175 35.4838 12.779H35.6048V15.551C35.6048 15.7123 35.5608 15.837 35.4728 15.925C35.3848 16.013 35.2601 16.057 35.0988 16.057ZM37.1778 13.307C37.4931 13.307 37.7681 13.23 38.0028 13.076C38.2448 12.922 38.4318 12.6983 38.5638 12.405C38.6958 12.1117 38.7618 11.7487 38.7618 11.316C38.7618 10.6707 38.6188 10.1793 38.3328 9.842C38.0468 9.50467 37.6618 9.336 37.1778 9.336C36.8551 9.336 36.5728 9.413 36.3308 9.567C36.0961 9.71367 35.9128 9.93367 35.7808 10.227C35.6561 10.5203 35.5938 10.8833 35.5938 11.316C35.5938 11.9613 35.7368 12.4563 36.0228 12.801C36.3088 13.1383 36.6938 13.307 37.1778 13.307Z" fill="white"/>
</svg>
