<svg width="24" height="24" viewBox="0 0 24 24" fill="none" xmlns="http://www.w3.org/2000/svg">
<path d="M22.4601 17.1698L21.1901 10.4798C21.0133 9.54446 20.5494 8.68744 19.863 8.02791C19.1766 7.36839 18.3018 6.93912 17.3601 6.7998C18.0724 7.75431 18.5115 8.88473 18.6301 10.0698L19.0901 14.6198C19.157 15.2483 19.0949 15.8838 18.9075 16.4873C18.72 17.0909 18.4113 17.6498 18.0001 18.1298C18.1327 18.7252 18.4964 19.2436 19.0112 19.5708C19.526 19.8981 20.1497 20.0074 20.7451 19.8748C21.3405 19.7422 21.8589 19.3785 22.1861 18.8637C22.5134 18.3489 22.6227 17.7252 22.4901 17.1298L22.4601 17.1698Z" stroke="black" stroke-width="2" stroke-linecap="round" stroke-linejoin="round"/>
<path d="M4.91012 14.6198L5.37012 10.0698C5.48876 8.88473 5.92779 7.75431 6.64012 6.7998C5.69846 6.93912 4.8236 7.36839 4.13719 8.02791C3.45078 8.68744 2.98693 9.54446 2.81012 10.4798L1.54012 17.1698C1.40751 17.7652 1.51686 18.3889 1.84411 18.9037C2.17136 19.4185 2.68971 19.7822 3.28512 19.9148C3.88053 20.0474 4.50424 19.9381 5.01902 19.6108C5.53381 19.2836 5.89751 18.7652 6.03012 18.1698C5.60847 17.6875 5.29127 17.123 5.09851 16.512C4.90576 15.9011 4.84161 15.2568 4.91012 14.6198Z" stroke="black" stroke-width="2" stroke-linecap="round" stroke-linejoin="round"/>
<path d="M14.4199 19.7399H9.57992C8.92687 19.7429 8.28045 19.6089 7.68239 19.3466C7.08433 19.0843 6.54794 18.6995 6.10785 18.217C5.66776 17.7345 5.33376 17.1651 5.12742 16.5455C4.92108 15.9259 4.84699 15.2699 4.90992 14.6199L5.36992 10.0699C5.52932 8.4237 6.2973 6.89629 7.52356 5.78655C8.74982 4.67682 10.3461 4.06465 11.9999 4.06986C13.6538 4.06465 15.25 4.67682 16.4763 5.78655C17.7025 6.89629 18.4705 8.4237 18.6299 10.0699L19.0899 14.6199C19.1529 15.2699 19.0788 15.9259 18.8724 16.5455C18.6661 17.1651 18.3321 17.7345 17.892 18.217C17.4519 18.6995 16.9155 19.0843 16.3175 19.3466C15.7194 19.6089 15.073 19.7429 14.4199 19.7399Z" stroke="black" stroke-width="2" stroke-linecap="round" stroke-linejoin="round"/>
<path d="M12.0001 16.1398L10.5701 14.5298C10.5701 14.1983 10.7018 13.8803 10.9362 13.6459C11.1706 13.4115 11.4885 13.2798 11.8201 13.2798H12.1801C12.5116 13.2798 12.8295 13.4115 13.064 13.6459C13.2984 13.8803 13.4301 14.1983 13.4301 14.5298L12.0001 16.1398Z" stroke="black" stroke-width="2" stroke-linecap="round" stroke-linejoin="round"/>
<path d="M12 16.1401V19.7401" stroke="black" stroke-width="2" stroke-linecap="round" stroke-linejoin="round"/>
<path d="M8.8501 10.1401V10.9801" stroke="black" stroke-width="2" stroke-linecap="round" stroke-linejoin="round"/>
<path d="M15.1499 10.1401V10.9801" stroke="black" stroke-width="2" stroke-linecap="round" stroke-linejoin="round"/>
</svg>
