<svg width="35" height="36" viewBox="0 0 35 36" fill="none" xmlns="http://www.w3.org/2000/svg">
<path d="M22.7645 21.5584C22.7441 20.6381 23.0146 19.7349 23.5374 18.9772C23.8233 18.5837 23.9719 18.1072 23.9603 17.6209C23.9741 17.1344 23.8253 16.6571 23.5374 16.2647C23.0331 15.4983 22.7643 14.6009 22.7643 13.6834C22.7643 12.766 23.0331 11.8686 23.5374 11.1022C23.812 10.7032 23.9591 10.2303 23.9591 9.74593C23.9591 9.26157 23.812 8.78863 23.5374 8.38968C23.0175 7.63607 22.7472 6.73837 22.7645 5.82301C22.7441 4.90271 23.0146 3.99944 23.5374 3.24176C23.6486 3.06475 23.7461 2.87949 23.829 2.6876H16.3478L16.3478 24.6938H23.829C23.7461 24.502 23.6486 24.3167 23.5374 24.1397C23.0146 23.382 22.7441 22.4787 22.7645 21.5584Z" stroke="black" stroke-width="2" stroke-linecap="round" stroke-linejoin="round"/>
<path d="M11.0542 3.29993V30.6583C11.0542 31.3622 11.3338 32.0373 11.8316 32.535C12.3293 33.0328 13.0044 33.3124 13.7084 33.3124C14.4123 33.3124 15.0874 33.0328 15.5851 32.535C16.0829 32.0373 16.3625 31.3622 16.3625 30.6583V3.29993C16.3626 3.21825 16.3462 3.1374 16.3146 3.06212C16.2829 2.98684 16.2364 2.91866 16.178 2.86159C16.1196 2.80452 16.0503 2.75971 15.9743 2.7298C15.8983 2.69989 15.8171 2.68548 15.7354 2.68743H11.6667C11.5043 2.68743 11.3485 2.75196 11.2336 2.86683C11.1187 2.98169 11.0542 3.13748 11.0542 3.29993Z" stroke="black" stroke-width="2" stroke-linecap="round" stroke-linejoin="round"/>
</svg>
