<svg width="24" height="25" viewBox="0 0 24 25" fill="none" xmlns="http://www.w3.org/2000/svg">
<path d="M19.5 8L18.01 9.49L15.01 6.49L16.5 5C16.92 4.58 17.46 4.38 18 4.38C18.54 4.38 19.08 4.58 19.5 5C20.33 5.83 20.33 7.17 19.5 8Z" fill="#5E17EB"/>
<path d="M17.31 10.2L6.5 21C5.67 21.83 4.33 21.83 3.5 21C2.67 20.17 2.67 18.83 3.5 18L14.31 7.20001L17.31 10.2Z" fill="#5E17EB"/>
<path d="M9.94999 3.99999L10.36 2.60999C10.4 2.47999 10.36 2.33999 10.27 2.23999C10.18 2.13999 10.02 2.09999 9.88999 2.13999L8.49999 2.54999L7.10999 2.13999C6.97999 2.09999 6.83999 2.13999 6.73999 2.22999C6.63999 2.32999 6.60999 2.46999 6.64999 2.59999L7.04999 3.99999L6.63999 5.38999C6.59999 5.51999 6.63999 5.65999 6.72999 5.75999C6.82999 5.85999 6.96999 5.88999 7.09999 5.84999L8.49999 5.44999L9.88999 5.85999C9.92999 5.86999 9.95999 5.87999 9.99999 5.87999C10.1 5.87999 10.19 5.83999 10.27 5.76999C10.37 5.66999 10.4 5.52999 10.36 5.39999L9.94999 3.99999Z" fill="#5E17EB"/>
<path d="M5.94999 9.99999L6.35999 8.60999C6.39999 8.47999 6.35999 8.33999 6.26999 8.23999C6.16999 8.13999 6.02999 8.10999 5.89999 8.14999L4.49999 8.54999L3.10999 8.13999C2.97999 8.09999 2.83999 8.13999 2.73999 8.22999C2.63999 8.32999 2.60999 8.46999 2.64999 8.59999L3.04999 9.99999L2.63999 11.39C2.59999 11.52 2.63999 11.66 2.72999 11.76C2.82999 11.86 2.96999 11.89 3.09999 11.85L4.48999 11.44L5.87999 11.85C5.90999 11.86 5.94999 11.86 5.98999 11.86C6.08999 11.86 6.17999 11.82 6.25999 11.75C6.35999 11.65 6.38999 11.51 6.34999 11.38L5.94999 9.99999Z" fill="#5E17EB"/>
<path d="M20.95 15L21.36 13.61C21.4 13.48 21.36 13.34 21.27 13.24C21.17 13.14 21.03 13.11 20.9 13.15L19.51 13.56L18.12 13.15C17.99 13.11 17.85 13.15 17.75 13.24C17.65 13.34 17.62 13.48 17.66 13.61L18.07 15L17.66 16.39C17.62 16.52 17.66 16.66 17.75 16.76C17.85 16.86 17.99 16.89 18.12 16.85L19.51 16.44L20.9 16.85C20.93 16.86 20.97 16.86 21.01 16.86C21.11 16.86 21.2 16.82 21.28 16.75C21.38 16.65 21.41 16.51 21.37 16.38L20.95 15Z" fill="#5E17EB"/>
</svg>
