<svg width="328" height="220" viewBox="0 0 328 220" fill="none" xmlns="http://www.w3.org/2000/svg">
<path opacity="0.4" d="M157.859 206.155C212.297 206.155 256.428 162.02 256.428 107.578C256.428 53.1347 212.297 9 157.859 9C103.42 9 59.2891 53.1347 59.2891 107.578C59.2891 162.02 103.42 206.155 157.859 206.155Z" fill="#AAB2B9"/>
<g clip-path="url(#clip0_212_51473)">
<path d="M183.849 127.07C183.849 139.046 184.029 152.019 182.092 163.883C181.697 166.309 181.551 177.424 178.052 178.111C173.068 179.088 170.701 166.364 170.056 163.523C168.494 156.627 166.224 149.766 164.503 142.954C164.079 141.27 162.816 139.323 163.066 137.472C163.607 133.474 167.959 133.46 170.292 131.215" fill="#898585"/>
<path d="M156.45 130.383C156.45 142.358 156.631 155.331 154.694 167.196C154.298 169.621 154.153 180.737 150.654 181.423C145.67 182.4 143.303 169.677 142.657 166.835C141.095 159.94 138.826 153.079 137.104 146.267C136.681 144.583 135.417 142.635 135.667 140.785C136.209 136.786 140.561 136.772 142.893 134.527" fill="#898585"/>
<path d="M106.11 145.99C102.362 150.474 102.292 156.905 103.549 162.276C104.472 166.24 106.228 169.192 108.123 172.622C108.838 173.918 110.761 175.789 110.546 177.335C110.386 178.443 109.268 178.832 108.179 179.012C106.908 179.22 101.077 177.127 99.0365 176.191C97.4122 175.443 96.7736 174.868 95.8642 173.391C94.7258 171.555 87.9856 158.131 87.1665 155.831C86.5973 154.237 86.7569 152.525 86.7569 150.806C86.7569 147.39 86.9097 143.994 86.8888 140.57C88.4923 140.141 90.4915 140.543 92.0672 140.875C95.5311 141.617 99.0574 141.984 102.528 142.67" fill="#898585"/>
<path d="M178.524 48.4206C167.807 34.8168 156.013 39.0927 146.128 39.8966C137.736 40.5827 132.439 38.9195 127.962 46.2792C123.7 53.2925 118.723 69.6683 114.53 76.4183C110.456 82.9741 107.38 86.4946 100.432 89.9181C89.2075 95.4552 73.589 87.1738 65.2939 96.9591C60.7888 102.281 57.568 110.112 56.6031 117.354C56.145 120.813 55.6313 125.567 56.3185 129.052C56.8599 131.824 56.7419 135.13 57.2695 137.556C58.4704 143.058 57.9636 146.856 57.3181 151.444C56.61 156.461 63.503 166.031 64.9052 171.111C67.7026 181.236 71.9647 182.005 77.1986 181.07C78.4204 180.848 79.3019 179.781 79.2533 178.54C78.9063 169.732 75.2272 154.839 77.3791 147.632C77.9622 145.685 78.934 142.538 81.0095 141.492C84.4526 139.746 86.3823 143.079 89.7351 144.763C97.6207 148.734 107.186 149.628 115.925 149.704C129.316 149.822 142.616 148.845 155.159 145.248C162.309 143.197 172.062 142.143 178.163 137.895C185.32 132.919 187.291 123.002 188.687 114.873C190.734 102.967 189.742 89.7934 189.089 77.7558C188.583 68.4417 184.327 54.1934 178.517 48.3929L178.524 48.4206Z" fill="#898585"/>
<path d="M68.0631 95.1641C66.0986 96.8273 63.3775 97.2847 61.3714 99.0033C59.8373 100.313 57.8729 101.942 57.2481 103.931C57.9562 103.861 58.2963 103.3 59.0043 103.321C57.9215 104.887 56.7483 106.363 56.0125 108.144C55.4156 109.586 55.367 110.972 54.9297 112.365C55.2906 111.353 55.7557 110.549 56.7553 110.098C56.672 111.242 56.3041 112.413 56.082 113.453C56.2208 112.891 56.5193 112.399 56.8247 111.907C55.9987 114.43 54.5201 116.509 54.3605 119.267C54.2077 121.831 54.0689 124.589 54.2563 127.147C54.527 126.426 55.0754 125.851 55.4989 125.22C55.5544 127.673 55.0546 130.064 55.2212 132.573C55.5613 131.97 55.7002 131.263 56.0125 130.632C56.2763 134.686 56.5956 138.553 58.2894 142.379C58.6642 138.449 58.7475 134.908 60.594 131.325C61.3436 129.87 62.0309 128.394 62.8014 126.952C63.5927 125.476 65.2378 123.591 65.571 121.963" fill="#898585"/>
<path d="M164.037 51.2203C163.968 51.2411 163.905 51.2688 163.843 51.3035C162.239 52.2391 160.379 53.9161 159.942 55.6695C159.754 56.4248 159.893 57.9633 159.511 58.5524C158.408 60.2641 157.922 58.0534 157.276 57.0555C154.673 53.036 149.633 51.747 145.399 53.0776C143.178 53.7775 139.915 54.6161 138.548 56.4318C136.229 59.5226 134.071 61.6224 133.286 65.628C131.461 74.9351 131.19 85.5105 136.708 93.494C137.958 95.3027 139.763 96.363 141.276 97.8738C145.17 101.762 144.983 106.391 143.83 108.56C143.483 109.211 142.518 109.052 142.414 108.324C142.234 107.091 141.824 105.254 139.929 103.071C138.381 101.29 135.376 101.436 133.238 100.216C131.398 99.1697 129.329 98.0055 127.775 96.4254C127.226 95.871 126.303 96.4462 126.532 97.1877C126.601 97.4164 126.671 97.6312 126.719 97.8253C127.06 99.1074 127.643 100.327 127.9 101.651C128.226 103.349 128.496 105.192 128.399 106.987C128.365 107.604 127.615 107.902 127.15 107.493C125.532 106.058 123.221 104.014 121.715 105.594C120.479 106.89 120.597 109.69 120.486 111.318C120.181 115.656 120.208 119.953 121.458 124.146C122.201 126.634 122.964 128.928 124.838 130.785C128.385 134.305 133.592 136.343 138.229 137.944C141.706 139.149 146.558 140.023 150.307 139.288C152.16 138.921 153.868 138.595 155.853 138.789C157.894 138.99 159.588 140.279 161.261 141.402C161.552 141.596 161.934 141.561 162.198 141.326C163.246 140.383 163.94 139.191 165.314 138.47C167.772 137.174 170.458 136.308 173.11 135.574C177.296 134.416 182.71 128.013 185.237 119.87C186.257 116.592 187.201 107.243 185.868 107.999C184.473 108.359 183.855 109.828 183.015 110.743C182.411 111.401 181.377 110.584 181.842 109.821C183.307 107.417 183.911 104.492 183.307 102.087C182.96 99.8558 180.391 100.431 178.968 100.687C175.442 101.332 175.109 102.468 173.832 103.446C172.929 104.132 172.291 105.532 171.791 107.001C171.527 107.777 170.396 107.638 170.326 106.821C170.16 105.012 170.153 103.182 170.784 101.651C171.923 98.9064 176.449 95.5037 178.385 93.3623C182.349 88.9825 184.591 81.6296 184.549 75.9608C184.515 71.0751 183.411 69.4049 182.613 64.637C182.134 61.7472 179.093 56.7228 177.053 54.5537C173.61 50.9015 169.993 49.4809 164.044 51.2065L164.037 51.2203Z" fill="white"/>
<path d="M72.6311 93.6467C67.7303 93.8824 63.3572 91.2073 61.3719 86.6127C57.7623 78.2342 62.7602 69.1072 71.1733 66.3699C76.1921 64.7343 80.8915 66.751 83.7098 71.0061C86.4308 75.1295 84.9037 81.5468 80.9679 84.298C79.8503 85.0811 78.8229 85.5039 77.5179 85.6425C76.1921 85.788 73.2489 86.1899 71.9647 85.5385C71.0692 85.0811 70.625 83.9238 71.923 83.6743C71.8814 82.8427 70.6944 82.5101 69.9308 82.6487C68.2093 82.9536 70.0558 86.578 71.3746 87.0493C74.0402 87.9987 70.2015 87.278 70.625 87.5136C76.3726 90.75 72.0827 89.3154 71.923 90.2025C71.2913 93.6329 72.1729 92.6557 74.1582 92.6904C74.0957 93.2032 74.1721 93.7507 74.422 94.2011C74.54 94.0002 74.9634 93.7576 75.0953 93.5081C76.789 95.1298 78.6147 95.8713 80.114 93.6675C80.121 94.1319 80.3501 94.4784 80.5444 94.9011C81.0442 94.61 81.4607 94.014 81.8425 93.6121C82.5297 94.416 83.5918 95.4902 84.1054 93.8893C85.6187 94.7971 88.6105 92.8983 89.7073 91.9974C91.5398 90.4797 94.4414 87.3681 93.5112 84.693C96.3156 82.9813 99.5226 78.2411 98.6202 74.679C98.3564 73.6465 97.7178 72.9327 97.5095 71.8931C97.1416 70.0428 97.6553 68.0954 97.2111 66.1966C96.7807 66.751 96.4058 67.3401 96.0865 67.9638C95.5173 66.0026 95.1564 64.4641 93.8722 62.8355C92.6088 61.2346 90.2279 59.1279 88.7216 61.6366C87.7081 60.1535 86.6946 58.2824 84.5427 58.5804C84.5219 58.7052 84.515 58.8299 84.515 58.9546C82.4533 57.3122 80.239 57.3469 77.8997 56.938C76.9487 56.7717 72.3256 55.1985 71.5343 56.044C71.1942 56.4044 71.3608 57.236 71.4024 57.7211C70.6041 56.1202 69.2922 55.94 67.7442 55.94C65.1273 55.94 62.9337 55.5797 62.4201 58.4418C61.0318 58.4141 59.6296 58.3725 58.2413 58.421C58.1788 59.4259 58.2898 59.9456 57.8456 60.6456C57.5887 61.0545 56.9918 61.3039 56.7141 61.7891C56.5545 62.0663 56.8807 62.5652 56.7419 62.8078C56.0824 63.9512 53.4655 64.0968 53.1184 65.2957C52.6394 66.9658 55.8603 68.1024 56.9224 68.636C54.2082 70.7913 50.5153 71.3387 48.5092 74.5197C47.8775 75.5245 48.0788 76.4046 47.5929 77.3679C46.7114 79.1143 47.6554 82.5031 49.6546 85.0118C49.4741 86.1553 47.6832 87.1047 48.0997 88.172C48.5439 89.3224 46.3365 89.9391 47.3014 89.1283C47.2736 89.752 47.4888 93.4319 48.9396 92.4686C49.0715 93.6398 48.8563 94.811 48.8424 95.9822C48.9396 95.7258 49.127 95.4763 49.2242 95.2684C49.2658 96.1554 49.127 97.0771 49.5088 97.9088C50.1544 97.4791 50.7097 96.6405 51.1748 95.996C51.4733 98.7404 53.5349 101.623 55.5896 103.356C56.3323 103.98 56.5614 103.813 57.2278 104.118C57.8456 104.402 58.4495 104.832 59.1089 105.137C61.0526 106.045 63.9611 104.042 65.8631 103.474C67.2583 103.058 69.0353 102.691 70.0141 101.533C71.3052 100.009 70.6805 97.9157 71.1039 96.1069" fill="#898585"/>
<path d="M95.1771 84.9704C98.4396 85.0397 103.715 82.2954 104.437 78.8234C104.166 79.0937 103.798 79.1976 103.514 79.4125C103.708 78.7957 104.18 78.2205 104.159 77.5136C103.486 77.4859 102.757 77.5344 102.112 77.4582C103 74.7485 103.174 71.4775 102.868 68.65C102.66 66.7096 101.82 64.8939 101.515 63.002C101.411 63.1198 101.216 63.2307 101.091 63.3623C100.772 62.0733 100.106 60.5002 99.5364 59.3498C99.4531 59.6478 99.1754 59.9042 99.0713 60.1745C98.4743 59.3221 96.8153 56.058 95.8573 56.5085C94.0109 54.8037 92.692 52.5098 91.0191 50.6456C90.8664 51.1168 90.79 51.6227 90.7553 52.1217C90.1653 51.5742 89.603 50.9367 88.8533 50.5901C88.6104 50.9782 88.652 51.5673 88.6312 52.0801C87.7982 51.5812 86.875 50.5001 85.806 50.4308C85.7574 50.8881 85.7435 51.3663 85.7713 51.8376C83.7652 50.8188 81.9951 49.9179 79.7183 50.0427C79.989 50.3615 80.1417 50.6802 80.3708 51.0129C79.1838 49.2596 74.7689 49.1418 73.0127 49.0586C73.1724 49.4328 73.3251 49.9456 73.3876 50.2991C68.9866 50.5694 63.4473 49.2942 59.7683 52.2603C60.4347 52.7731 61.2954 53.0018 61.9826 53.4869C60.7956 53.4523 59.0116 53.1127 57.9496 53.7849C58.0537 53.8473 58.1925 53.9651 58.3661 54.0413C57.8802 54.374 57.1513 54.4294 56.714 54.575C57.1027 54.8037 56.95 54.9007 57.1305 55.1016C56.7071 55.0739 56.3877 55.3858 56.0198 55.4412C56.1448 55.6491 56.1379 55.8709 56.3392 56.0927C53.2016 57.444 51.5009 58.4073 49.4601 61.214C48.8076 62.1149 48.0995 62.9673 47.5789 63.9237C48.051 63.986 48.5855 63.9514 49.0852 63.986C48.995 64.5404 48.3911 65.081 48.1551 65.5592C47.9746 65.9265 48.044 66.6056 47.6067 67.0699C47.8635 66.9105 48.1134 66.7789 48.3564 66.5918C44.0665 69.5509 44.3095 74.4089 43.2891 79.1353C43.9138 78.6779 44.6218 77.9294 45.1286 77.2918C44.9342 78.4492 44.2401 79.4402 44.1568 80.6391C44.3025 80.5005 44.5177 80.3896 44.6635 80.2718C44.5385 81.9697 43.775 83.522 43.8236 85.2961C43.9971 84.8041 44.1429 84.2843 44.4691 83.9863C44.7051 85.3308 44.5732 86.8762 44.5108 88.2414C44.6218 87.8741 44.8301 87.5276 44.955 87.1672C44.8717 90.0502 44.8231 93.0994 45.7672 95.8507C46.26 97.2991 47.1694 98.2762 47.8497 99.5721C47.8358 98.6781 47.8497 97.7842 47.8288 96.8902C48.0926 98.5326 48.9256 99.8216 49.231 101.367C49.2935 100.91 49.349 100.445 49.3837 99.9879C49.5503 100.307 49.828 100.556 49.9599 100.951C50.0848 100.979 50.0293 100.847 50.1542 100.882C50.3208 101.263 50.6193 101.513 50.7929 101.894C50.7998 101.499 50.9664 100.965 51.015 100.612C51.9382 105.213 58.1648 105.31 61.934 105.386C62.0035 104.195 60.3167 103.439 59.7405 102.51C61.6008 103.55 61.7327 104 63.121 102.788C64.2247 101.817 65.7241 101.09 66.6682 99.981C67.8274 98.6158 67.0777 98.6712 65.8768 98.096C63.2321 96.8278 61.3509 95.6358 58.9283 93.938C57.0958 92.649 56.2906 90.5976 55.9782 88.3523C55.6797 86.1762 55.645 83.5081 55.888 81.2836C56.714 73.6535 61.7813 67.264 68.9033 64.2286C74.3177 61.9209 80.3222 62.2674 84.6953 66.1344C88.3049 69.3222 88.4438 76.1137 86.868 80.5074C85.7157 83.716 81.5439 86.4812 78.0801 86.4881C74.6162 86.502 71.6522 81.6162 76.1781 80.6668C76.4557 78.664 73.5681 81.2974 73.1724 81.7687C73.0821 79.26 73.1516 78.3036 70.5346 79.8144C70.4652 79.558 70.2014 79.3154 70.1389 79.0798C69.7363 79.5164 69.3823 80.057 68.8964 80.2649C68.82 81.6855 68.8686 83.1201 68.8756 84.5407C68.7923 84.0071 68.5354 83.8824 68.0842 83.5844C68.0079 84.2081 68.0634 84.8526 68.0426 85.4902C67.7372 85.4278 67.279 85.6149 66.9597 85.5387C66.6126 87.0148 68.8547 87.0771 69.5906 87.8603C68.7784 88.0266 68.2647 88.7958 68.9728 89.4126C67.4803 89.9462 67.4248 90.9511 69.0075 91.2075C68.6812 93.044 69.7224 93.4043 71.2079 92.9885C71.7563 94.0904 72.8531 94.9913 73.9498 93.938C75.2271 95.7398 75.5603 94.9359 77.4831 94.5755C77.6497 95.2062 77.7122 95.9962 77.9343 96.6823C78.9963 96.8763 81.0788 97.3684 81.7799 96.3427C81.9743 97.4515 82.3283 97.6456 83.0016 98.394C83.7999 98.0059 84.2858 97.1674 84.9522 96.5922C86.7223 97.5208 86.9444 97.5416 88.3744 96.0101C90.1861 98.5465 91.5328 93.8548 92.6434 92.843C95.1354 90.5838 96.9402 88.7681 95.1562 84.9635L95.1771 84.9704Z" fill="white"/>
<path d="M177.761 50.285C178.587 41.8649 180.225 31.0124 175.706 23.3615C173.076 18.9124 168.89 21.5251 166.37 24.8446C164.156 27.7691 155.104 39.6889 153.209 42.8282C151.828 45.1151 155.722 40.4373 155.625 43.0985C155.402 49.2039 168.897 51.1443 173.61 51.6641" fill="#898585"/>
<path d="M176.567 46.4735C176.963 40.3473 177.761 32.4539 175.574 26.889C174.304 23.6527 172.277 25.5515 171.062 27.9701C169.993 30.0977 166.786 33.8399 165.87 36.1269C165.204 37.7901 163.086 39.3147 163.038 41.2482C162.934 45.6904 174.707 48.3377 176.574 46.4735" fill="white"/>
<path d="M129.759 50.285C128.933 41.8649 127.295 31.0124 131.814 23.3615C134.445 18.9124 138.631 21.5251 141.15 24.8446C143.365 27.7691 152.417 39.6889 154.312 42.8282C155.693 45.1151 151.799 40.4373 151.896 43.0985C152.118 49.2039 138.624 51.1443 133.91 51.6641" fill="#898585"/>
<path d="M130.954 46.4735C130.558 40.3473 129.76 32.4539 131.947 26.889C133.217 23.6527 135.244 25.5515 136.459 27.9701C137.528 30.0977 140.741 33.8399 141.651 36.1269C142.317 37.7901 144.434 39.3147 144.483 41.2482C144.587 45.6904 132.814 48.3377 130.947 46.4735" fill="white"/>
<path d="M168.654 89.6826C166.454 92.9675 163.476 92.2398 159.984 92.3992C160.318 95.2128 163.059 95.0812 165.454 94.8594C168.182 94.603 168.8 92.9813 168.661 89.6826H168.654Z" fill="#504E4E"/>
<path d="M148.641 68.102C150.152 68.102 151.376 66.8796 151.376 65.3716C151.376 63.8636 150.152 62.6411 148.641 62.6411C147.131 62.6411 145.906 63.8636 145.906 65.3716C145.906 66.8796 147.131 68.102 148.641 68.102Z" fill="#504E4E"/>
<path d="M169 64.6372C169 66.2796 170.333 67.6171 171.985 67.6171C173.637 67.6171 174.97 66.2865 174.97 64.6372C174.97 62.9878 173.637 61.6572 171.985 61.6572C170.333 61.6572 169 62.9878 169 64.6372Z" fill="#504E4E"/>
<path d="M166.161 72.108C164.599 72.0248 162.996 72.0941 161.455 72.205C160.663 72.2674 160.164 72.2397 160.302 73.2099C160.629 75.5522 164.46 78.3104 165.946 75.5107C166.383 74.686 166.293 73.397 166.168 72.108H166.161Z" fill="#504E4E"/>
<path d="M170.923 71.5049C171.069 73.5008 169.896 76.4668 168.736 78.2132C168.334 78.8161 167.709 79.3844 166.932 79.5507C166.203 79.7032 165.12 79.5507 164.578 79.024C164.238 78.6914 164.28 78.3449 164.037 78.0192C163.704 79.4676 163.121 79.7933 161.441 79.62C160.115 79.4814 158.22 79.0795 157.193 78.3172C155.728 77.2222 154.402 75.753 154.013 74.1037C153.888 73.5631 153.696 72.7408 153.437 71.6366C153.278 72.9463 153.694 74.6234 154.111 75.8639C154.617 77.3816 155.478 78.4281 156.748 79.5577C158.088 80.7427 159.768 81.9624 161.621 82.2673C163.273 82.5376 165.717 82.7317 167.07 81.7753C168.688 80.6249 170.229 78.9478 170.624 77.0282C170.916 75.6144 171.624 73.0572 170.916 71.5118L170.923 71.5049Z" fill="#504E4E"/>
<path d="M168.022 79.4883C167.112 79.9873 166.925 80.015 166.078 80.0427C165.738 80.0566 164.114 79.4121 164.114 79.4121C164.114 79.4121 163.191 80.2992 162.205 80.2368C161.469 80.1883 160.692 79.8279 160.039 79.8141C160.351 80.9922 160.414 82.1841 160.837 83.3345C161.171 84.2424 161.413 85.171 161.99 85.9541C162.364 86.467 163.725 86.6818 164.364 86.7996C165.141 86.9382 166.474 86.8342 167.085 86.4254C168.376 85.573 168.591 84.6651 168.654 83.6256C168.695 82.9465 168.036 80.2992 168.022 79.4883Z" fill="#898585"/>
<path d="M241.936 126.122C248.473 130.833 251.781 147.128 240.825 148.245L240.811 148.251C241.181 149.202 241.482 150.254 241.784 151.31C242.481 153.753 243.185 156.217 244.765 157.502C246.649 159.03 249.032 157.715 250.996 156.372C256.135 152.857 260.275 147.394 262.951 141.832C263.835 139.992 264.396 138.148 264.716 136.295L264.788 136.502C266.587 134.913 267.054 133.612 267.37 131.477C267.383 131.513 267.397 131.549 267.411 131.584C267.424 131.461 267.429 131.337 267.434 131.212C267.439 131.087 267.444 130.963 267.458 130.84C267.429 131.061 267.4 131.273 267.37 131.477C267.271 131.205 267.193 130.899 267.114 130.593C266.944 129.93 266.775 129.269 266.399 128.972C266.048 127.783 265.983 126.481 265.918 125.179C265.872 124.262 265.826 123.345 265.68 122.466C265.634 122.665 265.567 122.862 265.498 123.063C265.389 123.38 265.278 123.707 265.241 124.061C264.966 122.925 264.809 121.698 264.649 120.452C264.318 117.867 263.976 115.202 262.552 113.103C262.552 113.934 262.372 114.791 261.959 115.422L261.958 115.413C261.792 113.971 261.557 111.932 259.989 111.481C259.989 111.679 259.93 111.937 259.87 112.196C259.853 112.269 259.836 112.342 259.82 112.414C258.18 110.012 256.144 107.959 253.832 106.816C252.541 106.179 251.163 106.107 249.793 106.036C248.817 105.985 247.844 105.934 246.909 105.68C244.374 104.989 244.533 103.778 244.73 102.276C244.816 101.625 244.909 100.919 244.792 100.177C243.945 100.116 243.086 100.245 242.257 100.369C242.181 100.381 242.105 100.392 242.03 100.403C242.269 98.8747 242.509 95.9905 241.916 94.6614C241.607 94.8334 241.253 94.9108 240.902 94.9877C240.588 95.0564 240.276 95.1247 239.999 95.2595C239.76 94.575 239.64 93.7642 239.66 93C236.139 93.0864 231.825 94.5816 229.915 97.7582C229.906 97.5859 229.821 97.3339 229.729 97.0598C229.615 96.7207 229.489 96.348 229.482 96.0503C229.276 96.2526 228.94 96.3862 228.624 96.5118C228.358 96.6174 228.107 96.7173 227.958 96.8478C227.989 96.6328 227.964 96.3907 227.938 96.1495C227.91 95.8837 227.882 95.6189 227.931 95.3924C223.704 100.41 221.268 103.919 221.295 111.229C221.296 111.595 221.294 111.971 221.292 112.354C221.272 115.905 221.249 120.044 224.41 122.294C225.931 123.372 227.734 123.307 229.535 123.242C229.965 123.226 230.394 123.211 230.82 123.211C235.034 123.197 238.468 123.623 241.936 126.122Z" fill="#BFBFBF"/>
<path d="M248.193 148.85C250.19 149.023 253.212 151.123 254.456 152.618C255.189 153.502 256.054 154.559 256.42 155.655C255.981 155.25 255.382 154.844 254.982 154.525C255.335 155.343 256.3 156.679 256.26 157.436C255.981 157.217 255.648 157.064 255.382 156.825C255.548 157.955 256.134 158.971 256.187 160.128C256.187 160.035 256.174 159.948 256.167 159.855C256.973 162.567 257.745 165.71 257.372 168.528C257.012 168.229 256.78 167.757 256.52 167.444C257.186 171.139 258.071 174.542 257.711 178.336C257.685 178.15 257.625 177.918 257.605 177.718C257.425 178.802 257.432 179.892 257.385 180.981C257.319 180.855 257.126 180.656 257.046 180.45C256.866 181.347 256.62 182.237 256.294 183.081C256.2 183.042 256.16 182.962 256.187 182.849C255.388 183.673 255.089 184.982 254.163 185.733C253.957 185.181 253.624 184.643 253.398 184.085C252.772 184.836 252.386 185.892 251.627 186.511C251.541 186.285 251.268 186.085 251.181 185.846C250.076 186.205 248.732 188.464 247.76 189.249C247.241 188.112 247.267 186.537 247.014 185.294C246.508 182.756 246.269 179.639 245.084 177.313" fill="#BFBFBF"/>
<path d="M187.119 182.63C191.12 189.122 192.444 198.101 192.444 205.736C192.444 207.285 192.531 208.866 192.444 210.415C192.391 211.312 191.672 212.973 191.945 213.784C192.571 215.672 195.307 214.256 196.345 213.591C200.306 211.046 201.75 205.936 202.17 201.543C202.596 197.11 206.683 189.574 206.723 185.095C206.729 184.344 203.854 186.179 203.601 185.454C202.988 183.7 200.153 182.61 198.768 181.467" fill="#BFBFBF"/>
<path d="M169.878 163.41C170.098 160.44 171.529 142.424 167.309 175.545C166.99 178.037 167.369 180.556 167.489 183.061C167.675 186.896 167.475 190.837 166.777 194.618C166.098 198.286 165.059 207.756 164.367 208.454C163.049 209.77 163.548 210.581 164.32 210.733C172.741 212.421 174.252 201.184 176.302 198.745C178.645 195.954 185.535 185.633 186.786 181.965C187.558 179.712 182.533 185.872 182.366 183.473C182.186 180.875 178.605 177.632 177.054 175.891" fill="#BFBFBF"/>
<path d="M220.402 189.607C220.728 194.492 222.233 199.529 221.381 204.52C220.981 206.853 220.103 208.66 218.845 210.541C217.24 212.933 218.459 214.488 221.248 213.073C223.897 211.731 226.659 209.983 228.65 207.703C230.673 205.391 231.552 202.606 232.131 199.536C232.697 196.526 232.857 193.661 234.115 190.691C234.634 189.468 235.772 187.913 235.393 186.484C234.614 183.56 228.716 184.637 226.227 184.623" fill="#BFBFBF"/>
<path d="M210.756 141.154C215.895 148.857 224.255 146.464 232.283 145.261C237.735 144.444 243.453 145.115 247.82 148.444C254.509 153.548 255.894 163.025 255.927 171.319C255.94 174.502 256.52 178.13 254.902 180.875C253.691 182.922 251.734 184.769 250.602 186.69C248.465 190.325 251.913 193.143 251.161 196.931C250.336 201.117 248.199 205.723 246.368 209.511C246.095 210.082 245.263 212.023 244.624 212.315C244.019 212.601 242.428 212.302 242.008 211.577C241.309 210.368 243.027 203.736 238.866 195.096C237.029 191.275 235.758 192.053 231.211 187.507C227.664 190.179 224.735 189.242 220.588 190.876C217.506 192.086 201.344 192.272 195.446 189.926C191.592 188.391 187.818 185.753 184.429 183.4C182.672 182.184 179.883 180.071 179.151 177.904C177.853 174.057 178.798 168.268 178.598 164.241C178.259 157.31 182.439 151.249 187.731 146.949C190.427 144.756 192.384 144.989 195.22 143.739" fill="#BFBFBF"/>
<path d="M163.814 141.48C163.834 144.61 161.265 147.488 160.925 150.698C160.533 154.412 161.944 157.45 162.523 160.965C162.716 159.928 163.182 158.892 163.774 158.107C163.908 160.187 164.041 162.394 164.067 164.447C164.154 164.354 164.207 164.248 164.227 164.122C164.54 165.331 164.953 166.62 165.299 167.763C165.751 167.165 165.951 166.428 165.871 165.67C166.583 167.152 167.469 169.206 167.948 170.568C167.988 169.937 168.261 169.186 168.347 168.614C169.432 172.342 170.125 175.625 172.075 178.928C173.1 180.662 174.585 182.224 175.656 183.899C175.663 183.533 175.829 183.101 175.836 182.703C178.612 184.005 183.504 189.388 186.593 186.936C187.039 187.541 187.605 187.793 188.191 188.132C188.211 188.019 188.217 187.906 188.211 187.793C189.469 188.179 193.469 192.086 194.754 192.372C194.754 192.372 196.837 185.248 197.11 182.955C197.49 179.785 199.207 177.054 200.019 173.911C200.878 175.439 201.038 177.333 201.81 178.921C202.063 177.579 203.001 176.409 203.607 175.22C205.338 171.831 206.223 168.202 206.949 164.447C207.867 159.722 208.493 155.828 208.719 151.03C208.912 151.302 209.518 151.635 209.744 151.947C211.222 147.116 210.137 142.975 208.353 138.503C207.961 137.513 207.448 135.459 206.556 134.821C204.985 133.705 201.224 135.386 199.613 135.738C189.382 137.985 179.171 138.516 168.78 138.603" fill="white"/>
<path d="M171.882 109.263C171.655 108.485 170.577 107.847 170.051 107.276C168.74 105.853 167.775 104.179 166.397 102.783C165.738 102.112 165.112 101.408 164.44 100.75C164.24 100.557 163.947 100.238 163.601 99.8858C162.489 98.7627 160.579 99.3209 160.239 100.863C160.14 101.308 160.053 101.76 159.96 102.192C159.081 106.266 158.921 110.22 158.728 114.36C158.662 115.729 158.356 117.463 158.728 118.799C159.241 120.633 161.005 122.634 162.702 123.438C163.92 124.016 164.453 123.763 165.558 123.032C167.002 122.069 167.229 121.039 168.061 119.597C168.527 118.786 169.346 118.174 169.712 117.324" fill="#BFBFBF"/>
<path d="M167.328 114.513C167.135 112.665 163.807 108.126 163.062 106.491C162.735 105.78 162.536 104.936 162.116 104.245C161.937 103.946 161.477 104.072 161.444 104.418C161.318 105.727 160.938 107.109 160.812 108.392C160.672 109.781 160.539 111.17 160.419 112.559C160.272 114.207 159.926 117.025 160.652 118.48C160.878 118.925 161.025 119.218 161.464 119.105C161.923 118.985 162.935 116.759 163.208 116.24C163.681 115.337 164.2 114.267 164.473 113.29" fill="white"/>
<path d="M192.951 108.299C193.051 107.495 194.016 106.691 194.442 106.046C195.514 104.431 196.2 102.624 197.338 101.029C197.884 100.264 198.39 99.467 198.942 98.7161C199.108 98.4968 199.348 98.1313 199.628 97.7325C200.546 96.4433 202.523 96.6958 203.102 98.1645C203.269 98.5898 203.429 99.0218 203.588 99.4338C205.106 103.321 205.885 107.196 206.737 111.256C207.016 112.599 207.596 114.26 207.442 115.642C207.229 117.536 205.805 119.789 204.254 120.852C203.142 121.617 202.577 121.451 201.372 120.899C199.794 120.175 199.408 119.198 198.356 117.902C197.764 117.171 196.865 116.699 196.366 115.921" fill="#BFBFBF"/>
<path d="M198.182 112.552C198.083 110.698 200.739 105.9 201.218 104.165C201.424 103.414 201.491 102.544 201.797 101.799C201.93 101.48 202.396 101.527 202.489 101.859C202.822 103.135 203.414 104.438 203.747 105.687C204.1 107.036 204.46 108.385 204.799 109.741C205.205 111.349 205.991 114.067 205.505 115.622C205.352 116.101 205.258 116.406 204.799 116.367C204.333 116.32 201.118 120.666 200.772 120.194C200.159 119.377 198.615 115.629 198.196 114.712" fill="white"/>
<path d="M164.18 113.695C161.939 116.402 160.044 119.882 158.496 124.136C157.872 125.184 157.272 126.483 156.744 127.951C154.457 129.908 153.191 132.14 152.312 135.074C152.402 134.924 152.538 134.775 152.671 134.63C152.784 134.507 152.894 134.386 152.971 134.27C153.011 135.08 152.89 135.777 152.766 136.49C152.686 136.954 152.604 137.425 152.565 137.938C152.651 137.925 152.738 137.938 152.818 137.972C152.759 138.204 152.697 138.437 152.634 138.669C152.467 139.287 152.299 139.908 152.212 140.55C152.363 140.426 152.556 140.353 152.735 140.285C152.873 140.233 153.002 140.185 153.097 140.118C153.186 141.759 152.487 143.5 151.804 145.2C151.312 146.427 150.827 147.633 150.654 148.764C150.732 148.719 150.811 148.673 150.89 148.627C151.418 148.318 151.969 147.995 152.525 147.874C152.477 148.114 152.497 148.367 152.517 148.617C152.535 148.859 152.554 149.097 152.511 149.316C152.588 149.231 152.689 149.149 152.783 149.072C152.845 149.022 152.904 148.975 152.951 148.93C152.947 149.206 153.069 149.47 153.188 149.726C153.269 149.901 153.348 150.072 153.383 150.239C153.517 150.186 153.685 150.183 153.838 150.18C153.952 150.178 154.059 150.176 154.136 150.153C154.093 150.317 154.129 150.537 154.163 150.746C154.192 150.927 154.22 151.1 154.196 151.223C154.795 151.103 155.38 150.924 155.966 150.744C155.826 151.296 155.607 151.841 155.321 152.346C156.053 152.416 156.834 152.319 157.615 152.221C158.162 152.153 158.71 152.085 159.241 152.074C159.147 152.218 159.066 152.482 158.983 152.754C158.889 153.06 158.792 153.377 158.669 153.549C160.192 153.632 161.814 153.72 163.418 153.68C166.298 154.523 169.549 154.187 172.866 153.751L168.753 154.386C171.003 155.895 174.092 157.556 176.661 158.141C176.641 157.958 176.643 157.79 176.644 157.628C176.649 157.272 176.653 156.941 176.415 156.526C176.56 156.736 176.75 156.905 176.938 157.072C177.077 157.195 177.215 157.318 177.334 157.457C177.334 157.342 177.353 157.199 177.374 157.049C177.4 156.861 177.428 156.66 177.42 156.486C177.531 156.561 177.671 156.608 177.823 156.66C178.064 156.742 178.334 156.833 178.558 157.058C178.558 157.012 178.583 156.912 178.614 156.786C178.677 156.531 178.767 156.168 178.732 155.928C179.23 156.119 179.708 156.366 180.183 156.612C180.851 156.957 181.515 157.301 182.226 157.483C182.212 157.324 182.262 157.096 182.31 156.877C182.352 156.684 182.392 156.498 182.386 156.373C182.946 156.602 183.517 156.781 184.076 156.956C184.588 157.116 185.091 157.273 185.568 157.463C185.628 157.218 185.721 156.977 185.814 156.734C185.969 156.33 186.125 155.923 186.134 155.496C187.151 155.452 187.915 155.625 188.607 155.782C189.693 156.029 190.602 156.235 192.038 155.496C193.659 154.665 195.32 153.785 196.966 152.913C197.73 152.508 198.491 152.104 199.244 151.708C202.963 151.34 206.804 150.696 209.645 149.216C209.751 149.202 209.857 149.189 209.963 149.176L210.104 149.158C210.934 149.054 211.763 148.949 212.587 148.87C212.537 148.693 212.565 148.468 212.592 148.253C212.615 148.066 212.638 147.887 212.607 147.754C212.971 147.74 213.349 147.754 213.731 147.77C214.58 147.803 215.445 147.837 216.208 147.548C216.204 147.386 216.268 147.202 216.326 147.035C216.371 146.907 216.411 146.791 216.414 146.704C216.927 146.93 217.532 147.116 218.025 147.196C218.249 146.097 217.816 145.015 217.405 143.989C217.07 143.152 216.751 142.353 216.813 141.613C217.159 141.779 217.484 141.979 217.809 142.18C218.11 142.365 218.411 142.55 218.731 142.71C218.744 141.594 218.518 140.324 218.225 139.268C218.089 138.774 217.786 138.231 217.478 137.676C217.001 136.818 216.509 135.934 216.594 135.167C216.674 135.186 216.825 135.184 216.983 135.183C217.165 135.181 217.356 135.179 217.459 135.207C216.927 134.031 216.075 132.868 215.123 131.991C215.283 132.045 215.478 132.058 215.673 132.07C215.86 132.083 216.048 132.095 216.208 132.144C215.682 131.732 215.402 131.067 215.529 130.409C214.47 129.844 213.405 128.894 212.7 127.95C212.78 127.945 212.888 127.915 213.007 127.882C213.174 127.836 213.365 127.784 213.532 127.784C213.076 126.591 211.533 125.711 210.184 124.996C209.635 123.967 209.085 123.033 208.566 122.228C208.17 121.615 207.786 121.005 207.405 120.398C205.573 117.483 203.805 114.668 200.978 112.154C196.065 107.781 193.449 107.203 186.879 107.203L186.643 107.203C178.766 107.202 169.545 107.201 164.18 113.695Z" fill="#BFBFBF"/>
<path d="M174.058 129.385C174.165 130.535 173.313 131.558 172.161 131.665C171.01 131.771 169.985 130.921 169.878 129.771C169.772 128.621 170.624 127.598 171.775 127.491C172.927 127.385 173.952 128.236 174.058 129.385Z" fill="#504E4E"/>
<path d="M196.592 127.053C196.698 128.203 195.846 129.226 194.695 129.332C193.543 129.439 192.518 128.588 192.411 127.438C192.305 126.289 193.157 125.265 194.308 125.159C195.46 125.053 196.485 125.903 196.592 127.053Z" fill="#504E4E"/>
<path d="M181.267 129.339C182.478 128.794 184.076 128.548 185.407 128.708C185.82 128.754 186.172 128.714 186.359 129.12C186.519 129.472 186.385 129.99 186.279 130.316C185.946 131.346 185.201 132.489 184.049 132.549C183.071 132.595 182.045 132.09 181.327 131.459C181.034 131.2 179.756 129.904 181.267 129.332V129.339Z" fill="#504E4E"/>
<path d="M181.227 138.224C182.072 138.144 182.691 138.151 183.263 137.6C183.896 136.988 184.335 136.204 184.408 135.413C184.515 134.204 184.249 132.954 184.142 131.751C184.175 133.034 184.901 134.277 185.3 135.466C185.513 136.104 185.666 136.636 186.219 137.128C186.865 137.699 188.229 137.892 188.795 137.234" stroke="#504E4E" stroke-width="0.61231" stroke-linecap="round" stroke-linejoin="round"/>
<path d="M189.502 142.424C189.854 145.494 185.401 147.235 182.932 147.069C184.083 147.335 187.465 148.279 188.743 147.528C189.994 146.79 189.635 143.986 189.495 142.424H189.502Z" fill="#504E4E"/>
<path d="M181.973 126.495C181.135 125.657 179.217 122.142 179.237 120.899C179.217 120.966 179.237 121.078 179.237 121.145C179.231 121.098 179.237 121.052 179.244 121.005C179.311 121.019 179.357 121.059 179.384 121.125C179.417 120.932 179.404 120.713 179.397 120.5C179.457 120.653 179.597 120.793 179.657 120.879C179.697 120.235 179.317 119.484 179.124 118.866C178.765 117.736 178.472 116.633 178.419 115.443C178.379 114.546 178.445 113.662 178.479 112.785C178.825 113.137 178.858 113.709 179.344 113.968C179.364 113.217 179.371 112.466 179.397 111.715C179.41 111.236 179.224 110.485 179.53 110.08C180.589 110.685 180.882 112.765 181.174 113.835C181.341 114.44 181.447 115.004 181.561 115.596C181.587 115.29 181.8 114.998 181.993 114.792C182.446 116.021 182.206 117.696 182.166 118.978C182.259 118.779 182.379 118.6 182.552 118.473C182.672 119.032 182.479 119.69 182.679 120.208C182.745 120.122 182.885 120.068 182.938 119.995C183.085 121.883 182.586 125.438 181.96 126.495H181.973Z" fill="white"/>
<path d="M167.329 132.941C164.454 130.508 156.027 131.392 152.399 131.798C148.012 132.283 143.559 134.117 139.152 134.05" stroke="white" stroke-width="2" stroke-linecap="round" stroke-linejoin="round"/>
<path d="M160.893 136.489C153.365 136.29 147.8 142.191 140.924 143.799" stroke="white" stroke-width="2" stroke-linecap="round" stroke-linejoin="round"/>
<path d="M165.147 139.081C158.49 142.969 149.617 146.311 144.512 152.153" stroke="white" stroke-width="2" stroke-linecap="round" stroke-linejoin="round"/>
<path d="M164.447 142.424C159.801 145.966 155.294 149.847 150.914 153.721" stroke="white" stroke-width="2" stroke-linecap="round" stroke-linejoin="round"/>
<path d="M202.33 130.502C204.567 127.472 212.974 126.388 216.588 125.943C220.968 125.405 225.728 126.156 230.001 125.079" stroke="white" stroke-width="2" stroke-linecap="round" stroke-linejoin="round"/>
<path d="M209.406 132.462C216.682 130.529 223.465 134.988 230.527 134.961" stroke="white" stroke-width="2" stroke-linecap="round" stroke-linejoin="round"/>
<path d="M205.871 135.965C213.253 138.211 222.659 139.414 228.976 143.92" stroke="white" stroke-width="2" stroke-linecap="round" stroke-linejoin="round"/>
<path d="M207.33 139.055C212.669 141.434 217.954 144.165 223.113 146.923" stroke="white" stroke-width="2" stroke-linecap="round" stroke-linejoin="round"/>
<path d="M244.562 73.9211C245.894 76.7787 247.897 79.2775 249.488 81.9888C251.645 85.6705 253.429 90.1762 256.152 93.4591C257.083 94.5822 258.195 95.5458 259.307 96.4297C259.513 94.9078 258.614 92.4224 258.155 90.9338C256.697 86.2021 254.035 80.5866 250.933 76.7521C252.364 80.7195 255.493 84.7268 257.689 88.3287C259.227 90.854 259.959 94.0373 262.202 96.0908C262.309 91.1199 261.051 85.9961 258.102 81.8559C256.305 79.3306 254.301 76.7389 252.397 74.2202C250.56 71.7879 250.114 72.2332 246.772 72.2332" fill="#BFBFBF"/>
<path d="M242.198 54.9546C244.675 56.7356 245.34 58.4236 246.725 61.135C248.762 65.1157 250.898 69.0764 253.355 72.8179C255.232 75.6755 257.142 78.759 259.053 81.4837C255.445 82.2745 253.787 79.304 251.038 77.2704C251.79 78.8122 254.193 81.3043 253.934 83.0986C252.616 83.4641 251.085 81.0119 250.219 80.2543C250.326 81.5834 250.719 82.8992 250.646 84.2416C245.427 85.2451 242.744 74.6919 241.033 71.635C240.168 70.0799 239.516 68.6046 238.923 66.9166C238.551 65.8666 235.662 60.4372 235.961 59.5866C236.341 58.5299 236.893 58.8688 237.971 58.2375C239.263 57.4799 239.955 55.9647 242.198 54.9546Z" fill="white"/>
<path d="M194.491 70.5583C194.038 68.8637 195.389 67.2555 197.14 67.3684C200.694 67.601 204.622 67.1292 207.75 66.9963C212.383 66.8036 216.996 66.7305 221.636 66.7305C225.47 66.7305 229.298 66.7305 233.132 66.7305C239.489 66.7305 245.846 66.9165 252.196 66.8966C254.233 66.8966 256.27 66.8966 258.3 66.8966C259.019 66.8966 260.723 66.6042 261.409 67.0627C262.387 67.7207 262.367 68.8371 262.168 70.1131C261.848 72.1599 260.936 71.9207 258.839 71.9738C250.672 72.1798 242.511 72.4656 234.33 72.1466C221.856 71.6615 209.381 72.665 196.927 72.5055C195.795 72.4922 194.81 71.7213 194.517 70.6314C194.511 70.5982 194.504 70.5716 194.491 70.5384V70.5583Z" fill="#898585"/>
<path d="M207.637 32.1803C203.909 30.3262 204.063 36.0546 204.282 38.1812C204.808 43.1388 210.047 49.2262 213.568 52.6686C212.616 47.804 209.468 43.2518 208.536 38.5069" fill="#898585"/>
<path d="M219.113 11.6192C202.079 13.6727 202.226 57.992 225.084 65.5413C228.685 66.7309 234.909 65.7474 238.677 65.0163C243.017 64.1724 246.146 62.5508 247.876 57.7993C249.66 52.8882 247.69 44.9733 246.432 40.1088C245.16 35.191 239.615 31.1638 236.474 27.1432C232.333 21.8534 228.579 10.4762 219.113 11.6192Z" fill="#BFBFBF"/>
<path d="M224.065 63.6074C220.291 61.8264 221.349 69.5485 222.301 71.489C222.521 71.8612 222.54 71.9409 222.84 71.6485C223.199 70.8045 222.427 67.8406 223.566 66.5514C223.679 67.9469 223.339 71.6817 224.038 71.5289C225.383 70.9707 224.664 67.8539 225.216 66.5181C225.622 69.2694 225.157 70.2197 225.895 71.3362C226.048 71.5688 226.388 71.5289 226.488 71.2697C227.446 68.7311 227.213 63.3415 224.071 63.6074" fill="#504E4E"/>
<path d="M232.426 63.9262C228.652 62.1452 229.71 69.8674 230.662 71.8079C230.882 72.18 230.902 72.2598 231.201 71.9674C231.561 71.1234 230.789 68.1594 231.927 66.8702C232.04 68.2658 231.701 72.0006 232.4 71.8477C233.744 71.2895 233.025 68.1727 233.578 66.837C233.984 69.5882 233.518 70.5386 234.257 71.6484C234.41 71.881 234.749 71.8411 234.849 71.5819C235.808 69.0433 235.575 63.6538 232.433 63.9196" fill="#504E4E"/>
<path d="M209.375 46.1957C209.521 45.2121 209.368 44.2086 209.588 43.2118C210.134 44.1156 210.513 45.365 211.432 45.9431C211.498 45.7836 211.571 45.6242 211.651 45.4647C212.171 45.7637 212.51 46.3286 213.076 46.5479C213.422 45.8634 213.442 45.0526 213.415 44.2817C214.041 45.2653 214.653 46.3685 215.519 47.1726C215.885 46.8403 216.005 46.3485 215.898 45.8169C216.764 46.4416 217.409 47.8836 218.667 47.8903C218.927 47.259 218.834 46.4283 219.1 45.8102C219.692 46.7473 220.678 47.259 221.763 47.2855C222.175 46.5412 222.089 45.6175 222.122 44.8068C222.981 45.4912 224.232 46.3618 225.397 46.5412C225.663 45.6773 225.796 44.7868 225.763 43.8697C226.442 44.5077 227.447 44.9264 228.399 44.7403C228.399 43.9428 228.333 43.1055 228.446 42.328C229.451 42.1419 230.516 42.8264 231.621 42.7267C231.681 41.6435 231.168 40.4007 231.388 39.4105C232.886 40.0817 234.67 40.2811 236.307 40.2213C236.354 39.5634 236.294 38.8723 236.38 38.2276C236.893 38.3605 237.599 38.7327 238.218 38.5865C238.457 37.7292 238.391 36.852 238.377 35.9748C239.189 36.1675 241.566 37.2773 242.258 36.6659C242.764 36.214 242.571 35.0843 242.651 34.5327C242.757 33.815 242.964 33.1969 242.95 32.4992C242.897 30.1533 241.779 29.7678 240.747 27.721C239.469 25.1957 236.081 21.7533 234.19 19.5735C233.451 18.7229 232.739 17.8457 232 16.9884C229.544 14.6159 226.702 12.6223 223.453 11.8647C221.303 11.6919 219.073 12.0175 216.89 12.1704C209.708 14.8552 206.299 25.8868 207.211 37.3371L207.231 37.3105C207.231 37.3504 207.218 37.3903 207.218 37.4368C207.398 39.6166 207.737 41.8162 208.23 43.9694C208.237 43.9495 208.25 43.9362 208.256 43.9162C208.463 44.7602 208.749 45.5976 209.381 46.209L209.375 46.1957Z" fill="white"/>
<path d="M215.159 13.3801C214.999 10.1769 219.379 10.0573 221.316 8.48228C222.514 7.50538 224.152 6.16297 225.123 5C225.243 6.68797 224.95 8.35601 223.552 9.44589C224.471 9.26646 225.283 8.66835 226.162 8.54209C226.348 9.4326 225.995 10.2633 225.063 10.4161C225.836 10.4826 226.621 10.4161 227.387 10.4892C227.14 11.9513 224.637 13.6525 223.333 13.9715C221.569 14.3968 219.459 14.0978 217.655 14.1177C217.795 14.4168 218.047 14.6095 218.394 14.7025" fill="white"/>
<path d="M228.865 25.0098C228.865 26.9304 227.307 28.4854 225.384 28.4854C223.46 28.4854 221.902 26.9304 221.902 25.0098C221.902 23.0892 223.46 21.5342 225.384 21.5342C227.307 21.5342 228.865 23.0892 228.865 25.0098Z" fill="#BFBFBF"/>
<path d="M223.328 20.5706C223.861 21.4811 223.554 22.6441 222.642 23.1757C221.73 23.7073 220.566 23.4017 220.033 22.4912C219.501 21.5808 219.807 20.4178 220.719 19.8861C221.631 19.3545 222.796 19.6602 223.328 20.5706Z" fill="#504E4E"/>
<path d="M212.085 23.9466C213.01 23.2554 215.013 23.0029 216.012 23.7804C215.899 24.2323 214.374 26.7311 213.862 26.8174C213.256 26.9105 211.672 24.9833 211.346 24.3918" fill="#898585"/>
<path d="M228.812 53.0475C230.77 56.2905 232.933 59.7462 235.356 62.7101C236.468 64.0658 238.524 66.4649 240.222 66.9965C240.415 66.106 239.383 64.1589 239.05 63.3481C241.553 66.0861 245.88 71.3826 250.093 70.7845C250.113 69.8607 247.95 67.8737 247.051 67.4484C248.835 67.9136 250.626 69.7145 252.45 70.4522C253.688 70.9506 255.126 71.0835 256.41 70.9041C256.757 68.6778 254.194 67.3155 253.428 65.3883C254.573 66.4183 256.158 67.7342 256.73 65.9731C257.702 62.9693 253.355 60.2645 253.342 57.613C247.83 57.8854 241.413 54.9149 237.027 51.7383" fill="#504E4E"/>
<path d="M230.876 27.6016C228.313 29.0836 226.103 31.157 224.779 34.081C223.554 36.7858 223.361 39.6899 223.454 42.6339C223.56 45.8171 224.825 48.894 226.156 51.7649C226.889 53.3465 228.433 53.7386 229.804 54.9083C229.791 54.6026 229.831 54.2371 229.778 53.9446C229.738 55.5927 232.074 57.8323 233.286 58.7627C233.219 57.9918 232.806 57.2409 232.68 56.4367C233.572 57.5864 234.803 59.1814 235.875 59.9124C235.682 59.0551 235.169 58.1779 235.116 57.3538C237.073 59.2478 239.09 60.9757 241.134 62.7234C241.127 62.0124 241.014 61.2947 240.881 60.5969C242.971 62.9428 245.693 64.6507 248.449 66.0861C248.316 65.5212 248.03 65.0228 247.75 64.4978C248.323 65.6608 249.714 67.1361 250.939 67.5681C250.899 67.1959 251.105 67.0431 251.138 66.7241C251.698 66.6776 252.283 66.6909 252.842 66.6909C252.896 65.9532 252.763 65.2222 252.53 64.5443C253.262 65.9266 253.994 66.4915 255.498 66.2057C255.725 62.1054 254.839 57.1079 253.934 53.1605C252.49 46.8738 249.481 40.6203 246.079 35.2108C244.029 31.9478 237.486 24.3785 230.876 27.6016Z" fill="#898585"/>
</g>
<defs>
<clipPath id="clip0_212_51473">
<rect width="225" height="210" fill="white" transform="translate(43.2891 5)"/>
</clipPath>
</defs>
</svg>
