<svg width="35" height="36" viewBox="0 0 35 36" fill="none" xmlns="http://www.w3.org/2000/svg">
<path d="M35 14.3405C35 15.3491 34.7434 16.3349 34.2627 17.1735C33.7819 18.012 33.0987 18.6656 32.2992 19.0515C31.4998 19.4375 30.6201 19.5385 29.7715 19.3417C28.9228 19.145 28.1433 18.6593 27.5314 17.9462C26.9196 17.2331 26.5029 16.3245 26.3341 15.3353C26.1653 14.3462 26.2519 13.3209 26.583 12.3892C26.9142 11.4574 27.4749 10.6611 28.1944 10.1008C28.9138 9.54045 29.7597 9.2414 30.625 9.2414C31.7853 9.2414 32.8981 9.77863 33.7186 10.7349C34.5391 11.6912 35 12.9882 35 14.3405ZM8.75 14.3405C8.75 13.332 8.49341 12.3462 8.01268 11.5076C7.53195 10.6691 6.84867 10.0155 6.04924 9.62954C5.24981 9.2436 4.37015 9.14262 3.52148 9.33937C2.67281 9.53613 1.89326 10.0218 1.28141 10.7349C0.669555 11.448 0.252877 12.3566 0.0840664 13.3457C-0.084744 14.3349 0.00189561 15.3602 0.333029 16.2919C0.664162 17.2236 1.22492 18.02 1.94438 18.5803C2.66385 19.1406 3.50971 19.4397 4.375 19.4397C5.53532 19.4397 6.64812 18.9025 7.46859 17.9462C8.28906 16.9899 8.75 15.6929 8.75 14.3405ZM11.875 10.6983C12.7403 10.6983 13.5862 10.3992 14.3056 9.83893C15.0251 9.27863 15.5858 8.48225 15.917 7.55051C16.2481 6.61876 16.3347 5.59349 16.1659 4.60435C15.9971 3.61522 15.5804 2.70664 14.9686 1.99351C14.3567 1.28038 13.5772 0.794733 12.7285 0.597981C11.8799 0.401229 11.0002 0.502209 10.2008 0.888152C9.40133 1.27409 8.71805 1.92766 8.23732 2.76621C7.75659 3.60476 7.5 4.59063 7.5 5.59915C7.5 6.95153 7.96094 8.24851 8.78141 9.20479C9.60188 10.1611 10.7147 10.6983 11.875 10.6983ZM23.125 10.6983C23.9903 10.6983 24.8362 10.3992 25.5556 9.83893C26.2751 9.27863 26.8358 8.48225 27.167 7.55051C27.4981 6.61876 27.5847 5.59349 27.4159 4.60435C27.2471 3.61522 26.8304 2.70664 26.2186 1.99351C25.6067 1.28038 24.8272 0.794733 23.9785 0.597981C23.1299 0.401229 22.2502 0.502209 21.4508 0.888152C20.6513 1.27409 19.9681 1.92766 19.4873 2.76621C19.0066 3.60476 18.75 4.59063 18.75 5.59915C18.75 6.95153 19.2109 8.24851 20.0314 9.20479C20.8519 10.1611 21.9647 10.6983 23.125 10.6983ZM26.7375 21.7817C26.1026 21.3734 25.5429 20.8232 25.0906 20.1626C24.6383 19.502 24.3022 18.744 24.1016 17.9318C23.6859 16.2659 22.8177 14.8023 21.6272 13.7608C20.4368 12.7193 18.9885 12.1562 17.5 12.1562C16.0115 12.1562 14.5632 12.7193 13.3728 13.7608C12.1823 14.8023 11.3141 16.2659 10.8984 17.9318C10.497 19.566 9.55575 20.9479 8.28125 21.7744C7.05863 22.5454 6.09145 23.7696 5.5327 25.2532C4.97395 26.7367 4.85552 28.3951 5.19613 29.966C5.53675 31.5368 6.31697 32.9305 7.41339 33.9265C8.50982 34.9225 9.85987 35.4641 11.25 35.4656C12.0831 35.4684 12.908 35.2745 13.675 34.8956C16.1204 33.7201 18.8655 33.7201 21.3109 34.8956C22.7921 35.6464 24.4652 35.6997 25.9793 35.0444C27.4935 34.389 28.7312 33.0759 29.433 31.3803C30.1347 29.6847 30.246 27.7383 29.7435 25.9492C29.241 24.1601 28.1637 22.6672 26.7375 21.7835V21.7817Z" fill="black"/>
</svg>
