<svg width="16" height="17" viewBox="0 0 16 17" fill="none" xmlns="http://www.w3.org/2000/svg">
<path d="M13.7756 13.0139C13.7756 13.0139 13.0031 13.7726 12.8138 13.995C12.5054 14.3241 12.1421 14.4795 11.6658 14.4795C11.62 14.4795 11.5712 14.4795 11.5254 14.4765C10.6186 14.4186 9.77595 14.0651 9.14395 13.7635C7.41588 12.9286 5.89847 11.7434 4.63753 10.2413C3.59641 8.989 2.9003 7.83118 2.43927 6.58805C2.15533 5.82937 2.05152 5.23828 2.09732 4.68069C2.12785 4.32421 2.26524 4.02866 2.51865 3.77577L3.55977 2.73678C3.70938 2.59662 3.86814 2.52045 4.02385 2.52045C4.2162 2.52045 4.3719 2.63623 4.46961 2.73373C4.47266 2.73678 4.47571 2.73982 4.47876 2.74287C4.66501 2.91654 4.84209 3.09631 5.02833 3.28826C5.12298 3.38576 5.22068 3.48327 5.31838 3.58381L6.15188 4.41561C6.47551 4.73859 6.47551 5.03718 6.15188 5.36015C6.06334 5.44851 5.97785 5.53687 5.88931 5.62218C5.63285 5.88422 5.83431 5.68316 5.56869 5.92082C5.56259 5.92691 5.55648 5.92996 5.55343 5.93605C5.29086 6.19809 5.33971 6.45403 5.39466 6.6277C5.39772 6.63684 5.40077 6.64598 5.40382 6.65512C5.6206 7.17919 5.92591 7.67278 6.38998 8.26083L6.39304 8.26388C7.2357 9.29982 8.12416 10.1072 9.10422 10.7258C9.2294 10.805 9.35763 10.869 9.47975 10.9299C9.58967 10.9848 9.69347 11.0366 9.78201 11.0914C9.79423 11.0975 9.80644 11.1066 9.81865 11.1127C9.92246 11.1645 10.0202 11.1889 10.1209 11.1889C10.3743 11.1889 10.5331 11.0305 10.585 10.9787L11.1834 10.3814C11.2872 10.2778 11.4521 10.1529 11.6445 10.1529C11.8338 10.1529 11.9895 10.2717 12.0841 10.3753C12.0872 10.3784 12.0872 10.3784 12.0902 10.3814L13.7725 12.0603C14.087 12.3711 13.7756 13.0139 13.7756 13.0139Z" stroke="black" stroke-linecap="round" stroke-linejoin="round"/>
</svg>
