<svg width="15" height="17" viewBox="0 0 15 17" fill="none" xmlns="http://www.w3.org/2000/svg">
<path d="M13.1426 6.78594H7.99981V6.1431C8.49027 6.0157 8.92462 5.72923 9.23483 5.32854C9.54504 4.92786 9.71358 4.4356 9.71406 3.92886C9.71406 1.92891 7.82553 0.649653 7.74553 0.596083C7.65163 0.533434 7.54128 0.5 7.4284 0.5C7.31552 0.5 7.20516 0.533434 7.11126 0.596083C7.03127 0.649653 5.14274 1.92891 5.14274 3.92886C5.14322 4.4356 5.31176 4.92786 5.62197 5.32854C5.93218 5.72923 6.36653 6.0157 6.85698 6.1431V6.78594H1.71425C1.2596 6.78594 0.823575 6.96655 0.502091 7.28803C0.180608 7.60951 0 8.04554 0 8.50019V10.1666C0.000586267 10.7899 0.200843 11.3967 0.571415 11.898V14.7858C0.571415 15.2404 0.752023 15.6764 1.07351 15.9979C1.39499 16.3194 1.83101 16.5 2.28566 16.5H12.5711C13.0258 16.5 13.4618 16.3194 13.7833 15.9979C14.1048 15.6764 14.2854 15.2404 14.2854 14.7858V11.898C14.656 11.3967 14.8562 10.7899 14.8568 10.1666V8.50019C14.8568 8.04554 14.6762 7.60951 14.3547 7.28803C14.0332 6.96655 13.5972 6.78594 13.1426 6.78594ZM6.28557 3.92886C6.28557 2.9596 6.99984 2.18176 7.4284 1.80106C7.85696 2.18176 8.57123 2.9596 8.57123 3.92886C8.57123 4.23196 8.45082 4.52264 8.2365 4.73697C8.02218 4.95129 7.7315 5.07169 7.4284 5.07169C7.1253 5.07169 6.83462 4.95129 6.6203 4.73697C6.40597 4.52264 6.28557 4.23196 6.28557 3.92886ZM13.714 10.1666C13.714 11.113 12.9668 11.903 12.0483 11.928C11.8192 11.9345 11.5911 11.8949 11.3775 11.8117C11.1639 11.7286 10.9692 11.6034 10.8049 11.4436C10.6405 11.2839 10.5099 11.0928 10.4207 10.8816C10.3314 10.6705 10.2855 10.4436 10.2855 10.2144C10.2855 10.0629 10.2253 9.91754 10.1181 9.81038C10.011 9.70322 9.86561 9.64302 9.71406 9.64302C9.56251 9.64302 9.41717 9.70322 9.31001 9.81038C9.20285 9.91754 9.14264 10.0629 9.14264 10.2144C9.14264 10.6691 8.96204 11.1051 8.64055 11.4266C8.31907 11.7481 7.88305 11.9287 7.4284 11.9287C6.97375 11.9287 6.53773 11.7481 6.21624 11.4266C5.89476 11.1051 5.71415 10.6691 5.71415 10.2144C5.71415 10.0629 5.65395 9.91754 5.54679 9.81038C5.43963 9.70322 5.29429 9.64302 5.14274 9.64302C4.99119 9.64302 4.84585 9.70322 4.73869 9.81038C4.63153 9.91754 4.57132 10.0629 4.57132 10.2144C4.57141 10.4437 4.52552 10.6706 4.43635 10.8819C4.34718 11.0931 4.21655 11.2843 4.05218 11.4441C3.88782 11.6039 3.69307 11.7292 3.47945 11.8124C3.26582 11.8956 3.03768 11.9352 2.80851 11.9287C1.88996 11.903 1.14283 11.113 1.14283 10.1666V8.50019C1.14283 8.34864 1.20303 8.2033 1.31019 8.09613C1.41736 7.98897 1.5627 7.92877 1.71425 7.92877H13.1426C13.2941 7.92877 13.4394 7.98897 13.5466 8.09613C13.6538 8.2033 13.714 8.34864 13.714 8.50019V10.1666Z" fill="black"/>
</svg>
