<svg width="35" height="36" viewBox="0 0 35 36" fill="none" xmlns="http://www.w3.org/2000/svg">
<path d="M10.1355 4.55417V2.6875" stroke="black" stroke-width="2" stroke-linecap="round" stroke-linejoin="round"/>
<path d="M18.8999 4.55417V2.6875" stroke="black" stroke-width="2" stroke-linecap="round" stroke-linejoin="round"/>
<path d="M18.9583 3.62085H23.2603V12.1667C23.2489 13.3023 23.0132 14.4244 22.5668 15.4686C22.1203 16.5128 21.4719 17.4584 20.6588 18.2512C19.8457 19.044 18.8839 19.6683 17.8287 20.0882C16.7736 20.5081 15.6458 20.7153 14.5103 20.6979C12.2295 20.7135 10.0355 19.8243 8.40905 18.2252C6.7826 16.6261 5.85636 14.4475 5.83325 12.1667V3.62085H10.2083" stroke="black" stroke-width="2" stroke-linecap="round" stroke-linejoin="round"/>
<path d="M14.5833 20.6687V21.8645C14.5966 22.9989 14.8337 24.1194 15.281 25.1619C15.7283 26.2044 16.377 27.1484 17.1899 27.9396C18.0029 28.7309 18.964 29.3538 20.0182 29.7728C21.0724 30.1918 22.199 30.3986 23.3333 30.3812" stroke="black" stroke-width="2" stroke-linecap="round" stroke-linejoin="round"/>
<path d="M26.1917 33.3125C27.8428 33.3125 29.1813 32.0001 29.1813 30.3812C29.1813 28.7623 27.8428 27.45 26.1917 27.45C24.5406 27.45 23.2021 28.7623 23.2021 30.3812C23.2021 32.0001 24.5406 33.3125 26.1917 33.3125Z" stroke="black" stroke-width="2" stroke-linecap="round" stroke-linejoin="round"/>
</svg>
