<svg width="31" height="30" viewBox="0 0 31 30" fill="none" xmlns="http://www.w3.org/2000/svg">
<path d="M19.2502 3V7.5C19.2502 8.32843 19.9218 9 20.7502 9H25.2502M11.0002 9H14.0002M11.0002 13.5H20.0002M11.0002 18H20.0002M23.0002 5.25C22.3326 4.65268 21.6399 3.94422 21.2025 3.4841C20.9115 3.17792 20.5094 3 20.087 3H8.74987C7.09303 3 5.74988 4.34314 5.74987 5.99998L5.74976 23.9999C5.74975 25.6568 7.09289 26.9999 8.74974 26.9999L22.2498 27C23.9066 27 25.2498 25.6569 25.2498 24.0001L25.2502 8.09729C25.2502 7.71374 25.1039 7.34504 24.8377 7.06891C24.3455 6.55831 23.5234 5.71815 23.0002 5.25Z" stroke="black" stroke-width="2" stroke-linecap="round" stroke-linejoin="round"/>
</svg>
