<svg width="24" height="24" viewBox="0 0 24 24" fill="none" xmlns="http://www.w3.org/2000/svg">
<path d="M4.6499 10.9998C4.67141 10.812 4.76126 10.6386 4.90234 10.5128C5.04342 10.3869 5.22586 10.3174 5.4149 10.3174C5.60395 10.3174 5.78639 10.3869 5.92747 10.5128C6.06854 10.6386 6.15839 10.812 6.1799 10.9998" stroke="black" stroke-width="2" stroke-linecap="round" stroke-linejoin="round"/>
<path d="M13.5301 9.00011C12.5896 8.10035 11.4319 7.45973 10.1701 7.14076C8.90817 6.82178 7.58516 6.83534 6.33008 7.18011C7.0649 7.74824 7.65978 8.47719 8.06907 9.31098C8.47836 10.1448 8.69117 11.0613 8.69117 11.9901C8.69117 12.9189 8.47836 13.8354 8.06907 14.6692C7.65978 15.503 7.0649 16.232 6.33008 16.8001C7.58347 17.1474 8.90545 17.1642 10.1672 16.8487C11.429 16.5333 12.5876 15.8964 13.5301 15.0001L16.6201 12.0001L13.5301 9.00011Z" stroke="black" stroke-width="2" stroke-linecap="round" stroke-linejoin="round"/>
<path d="M8.6899 11.9999C8.68706 11.0717 8.4731 10.1563 8.06423 9.32296C7.65536 8.48963 7.06229 7.76022 6.3299 7.18994C5.11949 7.50809 4.01086 8.13126 3.1099 8.99994L2.1699 10.1399C1.73898 10.6601 1.50317 11.3144 1.50317 11.9899C1.50317 12.6654 1.73898 13.3197 2.1699 13.8399L3.1099 14.9999C4.00974 15.8723 5.11847 16.4989 6.3299 16.8199C7.06362 16.2486 7.65749 15.5176 8.06642 14.6824C8.47535 13.8472 8.68857 12.9299 8.6899 11.9999Z" stroke="black" stroke-width="2" stroke-linecap="round" stroke-linejoin="round"/>
<path d="M16.6201 12L17.4001 14.31C17.7301 15.31 17.8401 15.88 18.9301 16.17L22.2901 17.06C22.8301 15.24 22.3801 13.53 20.3601 12.99L16.6201 12Z" stroke="black" stroke-width="2" stroke-linecap="round" stroke-linejoin="round"/>
<path d="M16.6201 11.9999L17.4001 9.68994C17.7301 8.68994 17.8401 8.11994 18.9301 7.82994L22.2901 6.93994C22.8301 8.75994 22.3801 10.4699 20.3601 11.0099L16.6201 11.9999Z" stroke="black" stroke-width="2" stroke-linecap="round" stroke-linejoin="round"/>
</svg>
