<svg width="24" height="25" viewBox="0 0 24 25" fill="none" xmlns="http://www.w3.org/2000/svg">
<path d="M12 15.5L12 18.5" stroke="white" stroke-width="1.5" stroke-linecap="round"/>
<path d="M21.6359 13.4581L21.3572 15.3955C20.8697 18.7829 20.626 20.4766 19.451 21.4884C18.2759 22.5002 16.5526 22.5002 13.1061 22.5002H10.8939C7.44737 22.5002 5.72409 22.5002 4.54903 21.4884C3.37396 20.4766 3.13025 18.7829 2.64284 15.3955L2.36407 13.4581C1.98463 10.8211 1.79491 9.50253 2.33537 8.37519C2.87583 7.24785 4.02619 6.56258 6.32691 5.19205L7.71175 4.36711C9.80104 3.12253 10.8457 2.50024 12 2.50024C13.1543 2.50024 14.199 3.12253 16.2882 4.36711L17.6731 5.19205C19.9738 6.56258 21.1242 7.24785 21.6646 8.37519" stroke="white" stroke-width="1.5" stroke-linecap="round"/>
</svg>
