<svg width="35" height="28" viewBox="0 0 35 28" fill="none" xmlns="http://www.w3.org/2000/svg">
<path d="M33.5836 16.4875C33.2022 16.1935 32.7649 15.9803 32.2984 15.8607C31.8319 15.7411 31.346 15.7178 30.8702 15.792C33.6084 13.0275 34.9936 10.2791 34.9936 7.58455C34.9936 3.72505 31.8894 0.58583 28.0736 0.58583C27.0611 0.579472 26.0595 0.794807 25.1392 1.21672C24.2188 1.63863 23.4019 2.25689 22.7458 3.02809C22.0898 2.25689 21.2729 1.63863 20.3525 1.21672C19.4321 0.794807 18.4305 0.579472 17.4181 0.58583C13.6023 0.58583 10.4981 3.72505 10.4981 7.58455C10.4981 9.18842 10.9705 10.7471 11.9649 12.3962C11.1505 12.6025 10.4072 13.0258 9.81424 13.6209L6.5161 16.9162H2.33291C1.71418 16.9162 1.1208 17.162 0.683292 17.5995C0.245788 18.037 0 18.6304 0 19.2491L0 25.0813C0 25.7001 0.245788 26.2934 0.683292 26.731C1.1208 27.1685 1.71418 27.4142 2.33291 27.4142H17.4968C17.5922 27.4143 17.6872 27.4025 17.7797 27.3793L27.1113 25.0463C27.1708 25.0322 27.2288 25.0127 27.2848 24.988L32.9523 22.5764L33.0164 22.5472C33.5611 22.275 34.0276 21.8687 34.3718 21.3664C34.716 20.8642 34.9267 20.2825 34.9841 19.6763C35.0414 19.0701 34.9434 18.4593 34.6995 17.9014C34.4555 17.3435 34.0735 16.857 33.5895 16.4875H33.5836ZM31.9943 20.4461L26.4537 22.8053L17.351 25.0813H8.16517V18.5652L11.4648 15.2671C11.6806 15.0495 11.9376 14.877 12.2207 14.7596C12.5038 14.6422 12.8074 14.5823 13.1138 14.5833H20.4129C20.877 14.5833 21.322 14.7676 21.6501 15.0957C21.9783 15.4239 22.1626 15.8689 22.1626 16.3329C22.1626 16.797 21.9783 17.242 21.6501 17.5702C21.322 17.8983 20.877 18.0826 20.4129 18.0826H16.3303C16.021 18.0826 15.7243 18.2055 15.5055 18.4243C15.2868 18.643 15.1639 18.9397 15.1639 19.2491C15.1639 19.5584 15.2868 19.8551 15.5055 20.0739C15.7243 20.2926 16.021 20.4155 16.3303 20.4155H20.9962C21.0839 20.4153 21.1715 20.4055 21.2571 20.3864L31.0262 18.1395L31.0714 18.1278C31.3696 18.045 31.6879 18.0755 31.965 18.2132C32.2422 18.351 32.4586 18.5864 32.5726 18.8742C32.6866 19.1619 32.6902 19.4816 32.5826 19.7718C32.475 20.062 32.264 20.3022 31.99 20.4461H31.9943Z" fill="#0E2515"/>
</svg>
