<svg width="30" height="30" viewBox="0 0 30 30" fill="none" xmlns="http://www.w3.org/2000/svg">
<path d="M30 11.8633C30 12.7278 29.7801 13.5728 29.368 14.2915C28.956 15.0103 28.3703 15.5705 27.6851 15.9013C26.9998 16.2321 26.2458 16.3187 25.5184 16.15C24.791 15.9814 24.1228 15.5651 23.5984 14.9539C23.0739 14.3426 22.7168 13.5638 22.5721 12.716C22.4274 11.8682 22.5016 10.9894 22.7855 10.1907C23.0693 9.39209 23.5499 8.70948 24.1666 8.22922C24.7833 7.74896 25.5083 7.49262 26.25 7.49262C27.2446 7.49262 28.1984 7.95311 28.9017 8.77277C29.6049 9.59244 30 10.7041 30 11.8633ZM7.5 11.8633C7.5 10.9989 7.28007 10.1538 6.86801 9.43509C6.45596 8.71633 5.87029 8.15613 5.18506 7.82532C4.49984 7.49452 3.74584 7.40796 3.01841 7.57661C2.29098 7.74525 1.6228 8.16152 1.09835 8.77277C0.573904 9.38403 0.216751 10.1628 0.0720569 11.0106C-0.0726377 11.8585 0.00162481 12.7373 0.285453 13.5359C0.569282 14.3346 1.04993 15.0172 1.66661 15.4974C2.2833 15.9777 3.00832 16.234 3.75 16.234C4.74456 16.234 5.69839 15.7735 6.40165 14.9539C7.10491 14.1342 7.5 13.0225 7.5 11.8633ZM10.1786 8.74139C10.9203 8.74139 11.6453 8.48506 12.262 8.0048C12.8786 7.52454 13.3593 6.84193 13.6431 6.04329C13.927 5.24465 14.0012 4.36585 13.8565 3.51802C13.7118 2.67019 13.3547 1.8914 12.8302 1.28015C12.3058 0.668897 11.6376 0.252628 10.9102 0.0839837C10.1827 -0.0846606 9.42873 0.00189375 8.74351 0.332701C8.05829 0.663509 7.47262 1.22371 7.06056 1.94247C6.64851 2.66123 6.42857 3.50626 6.42857 4.3707C6.42857 5.52988 6.82366 6.64158 7.52692 7.46125C8.23018 8.28091 9.18401 8.74139 10.1786 8.74139ZM19.8214 8.74139C20.5631 8.74139 21.2881 8.48506 21.9048 8.0048C22.5215 7.52454 23.0021 6.84193 23.286 6.04329C23.5698 5.24465 23.6441 4.36585 23.4994 3.51802C23.3547 2.67019 22.9975 1.8914 22.4731 1.28015C21.9486 0.668897 21.2804 0.252628 20.553 0.0839837C19.8256 -0.0846606 19.0716 0.00189375 18.3864 0.332701C17.7011 0.663509 17.1155 1.22371 16.7034 1.94247C16.2914 2.66123 16.0714 3.50626 16.0714 4.3707C16.0714 5.52988 16.4665 6.64158 17.1698 7.46125C17.873 8.28091 18.8269 8.74139 19.8214 8.74139ZM22.9179 18.2414C22.3736 17.8915 21.894 17.4199 21.5063 16.8537C21.1186 16.2875 20.8305 15.6377 20.6585 14.9415C20.3022 13.5136 19.558 12.2591 18.5376 11.3664C17.5173 10.4737 16.2759 9.99105 15 9.99105C13.7241 9.99105 12.4827 10.4737 11.4624 11.3664C10.442 12.2591 9.69776 13.5136 9.34152 14.9415C8.9974 16.3423 8.19064 17.5268 7.09822 18.2352C6.05025 18.8961 5.22124 19.9453 4.74231 21.217C4.26339 22.4886 4.16187 23.9101 4.45383 25.2565C4.74578 26.603 5.41455 27.7975 6.35434 28.6513C7.29413 29.505 8.45131 29.9692 9.64286 29.9705C10.3569 29.9729 11.064 29.8067 11.7214 29.4819C13.8175 28.4744 16.1705 28.4744 18.2665 29.4819C19.5361 30.1255 20.9701 30.1712 22.268 29.6095C23.5659 29.0477 24.6268 27.9222 25.2282 26.4688C25.8297 25.0155 25.9251 23.3471 25.4944 21.8136C25.0637 20.2801 24.1403 19.0004 22.9179 18.243V18.2414Z" fill="black"/>
</svg>
