<svg width="54" height="54" viewBox="0 0 54 54" fill="none" xmlns="http://www.w3.org/2000/svg">
<path fill-rule="evenodd" clip-rule="evenodd" d="M17.0994 10.0957C17.7002 7.14825 20.3237 5.0625 23.3274 5.0625H30.6804C33.6842 5.0625 36.3054 7.14825 36.9084 10.0957C36.9749 10.4203 37.1486 10.7131 37.4016 10.9269C37.6547 11.1408 37.9723 11.2633 38.3034 11.2748H38.3777C41.5344 11.4143 43.9599 11.8012 45.9849 13.131C47.2607 13.968 48.3587 15.0435 49.2137 16.3012C50.2779 17.8628 50.7459 19.6583 50.9709 21.8273C51.1914 23.949 51.1914 26.6063 51.1914 29.9722V30.1635C51.1914 33.5295 51.1914 36.189 50.9709 38.3085C50.7459 40.4775 50.2779 42.273 49.2137 43.8368C48.356 45.0952 47.2589 46.1725 45.9849 47.007C44.4032 48.0443 42.5874 48.5033 40.3869 48.7215C38.2314 48.9375 35.5292 48.9375 32.0957 48.9375H21.9122C18.4787 48.9375 15.7764 48.9375 13.6209 48.7215C11.4204 48.5033 9.60466 48.0465 8.02291 47.007C6.74875 46.1718 5.65161 45.0938 4.79416 43.8345C3.72991 42.273 3.26191 40.4775 3.03691 38.3085C2.81641 36.189 2.81641 33.5295 2.81641 30.1635V29.9722C2.81641 26.6063 2.81641 23.949 3.03691 21.8273C3.26191 19.6583 3.72991 17.8628 4.79416 16.3012C5.65161 15.042 6.74875 13.9639 8.02291 13.1287C10.0479 11.8012 12.4734 11.4143 15.6302 11.277L15.6684 11.2748H15.7044C16.0355 11.2633 16.3531 11.1408 16.6062 10.9269C16.8592 10.7131 17.0329 10.4203 17.0994 10.0957ZM23.3274 8.4375C21.8874 8.4375 20.6792 9.43425 20.4069 10.7685C19.9682 12.9285 18.0512 14.6295 15.7449 14.6498C12.7119 14.7847 11.0874 15.156 9.87241 15.9525C8.96989 16.5448 8.19243 17.3084 7.58416 18.2002C6.96316 19.1115 6.58966 20.2793 6.39166 22.176C6.19366 24.102 6.19141 26.586 6.19141 30.069C6.19141 33.552 6.19141 36.0338 6.39391 37.9598C6.58966 39.8565 6.96316 41.0243 7.58641 41.9378C8.18941 42.8242 8.96566 43.5893 9.87466 44.1855C10.8129 44.7998 12.0144 45.171 13.9562 45.3645C15.9227 45.5603 18.4562 45.5625 22.0044 45.5625H32.0034C35.5494 45.5625 38.0829 45.5625 40.0517 45.3645C41.9934 45.171 43.1949 44.802 44.1332 44.1855C45.0422 43.5893 45.8207 42.8242 46.4237 41.9355C47.0447 41.0243 47.4182 39.8565 47.6162 37.9598C47.8142 36.0338 47.8164 33.5498 47.8164 30.069C47.8164 26.586 47.8164 24.102 47.6139 22.176C47.4182 20.2793 47.0447 19.1115 46.4214 18.2002C45.8138 17.3073 45.0363 16.5427 44.1332 15.9503C42.9227 15.156 41.2982 14.7847 38.2607 14.6498C35.9567 14.6273 34.0397 12.9307 33.6009 10.7685C33.4569 10.1031 33.0877 9.5078 32.5556 9.08312C32.0235 8.65843 31.3612 8.43039 30.6804 8.4375H23.3274ZM27.0039 24.1875C25.6612 24.1875 24.3736 24.7209 23.4242 25.6703C22.4748 26.6197 21.9414 27.9073 21.9414 29.25C21.9414 30.5927 22.4748 31.8803 23.4242 32.8297C24.3736 33.7791 25.6612 34.3125 27.0039 34.3125C28.3466 34.3125 29.6342 33.7791 30.5836 32.8297C31.533 31.8803 32.0664 30.5927 32.0664 29.25C32.0664 27.9073 31.533 26.6197 30.5836 25.6703C29.6342 24.7209 28.3466 24.1875 27.0039 24.1875ZM18.5664 29.25C18.5664 27.0122 19.4554 24.8661 21.0377 23.2838C22.62 21.7014 24.7661 20.8125 27.0039 20.8125C29.2417 20.8125 31.3878 21.7014 32.9701 23.2838C34.5525 24.8661 35.4414 27.0122 35.4414 29.25C35.4414 31.4878 34.5525 33.6339 32.9701 35.2162C31.3878 36.7986 29.2417 37.6875 27.0039 37.6875C24.7661 37.6875 22.62 36.7986 21.0377 35.2162C19.4554 33.6339 18.5664 31.4878 18.5664 29.25ZM38.8164 22.5C38.8164 22.0524 38.9942 21.6232 39.3107 21.3068C39.6271 20.9903 40.0564 20.8125 40.5039 20.8125H42.7539C43.2015 20.8125 43.6307 20.9903 43.9472 21.3068C44.2636 21.6232 44.4414 22.0524 44.4414 22.5C44.4414 22.9476 44.2636 23.3768 43.9472 23.6932C43.6307 24.0097 43.2015 24.1875 42.7539 24.1875H40.5039C40.0564 24.1875 39.6271 24.0097 39.3107 23.6932C38.9942 23.3768 38.8164 22.9476 38.8164 22.5Z" fill="#D97C5E"/>
</svg>
