<svg width="226" height="210" viewBox="0 0 226 210" fill="none" xmlns="http://www.w3.org/2000/svg">
<g id="Illustration" clip-path="url(#clip0_245_101458)">
<g id="Dog">
<g id="Body">
<path id="Vector" d="M140.849 122.071C140.849 134.046 141.029 147.019 139.092 158.883C138.697 161.309 138.551 172.425 135.052 173.111C130.068 174.088 127.701 161.364 127.056 158.523C125.494 151.627 123.224 144.767 121.503 137.954C121.079 136.27 119.816 134.323 120.066 132.473C120.607 128.474 124.959 128.46 127.292 126.215" fill="#898585"/>
<path id="Vector_2" d="M113.45 125.383C113.45 137.358 113.631 150.331 111.694 162.196C111.298 164.621 111.153 175.737 107.654 176.423C102.67 177.4 100.303 164.677 99.6573 161.835C98.0955 154.94 95.8256 148.079 94.1041 141.267C93.6806 139.583 92.4173 137.635 92.6672 135.785C93.2086 131.786 97.561 131.773 99.8933 129.527" fill="#898585"/>
<path id="Vector_3" d="M63.11 140.99C59.3615 145.474 59.2921 151.905 60.5485 157.276C61.4718 161.24 63.228 164.192 65.123 167.622C65.838 168.918 67.7608 170.789 67.5456 172.335C67.3859 173.443 66.2684 173.832 65.1785 174.012C63.9082 174.22 58.0773 172.127 56.0365 171.191C54.4122 170.443 53.7736 169.868 52.8642 168.391C51.7258 166.555 44.9856 153.131 44.1665 150.831C43.5973 149.237 43.7569 147.525 43.7569 145.806C43.7569 142.39 43.9097 138.994 43.8888 135.57C45.4923 135.141 47.4915 135.543 49.0672 135.875C52.5311 136.617 56.0574 136.984 59.5281 137.67" fill="#898585"/>
<path id="Vector_4" d="M135.524 43.4207C124.807 29.817 113.013 34.0928 103.128 34.8967C94.7358 35.5828 89.4394 33.9196 84.9621 41.2793C80.7 48.2926 75.7229 64.6685 71.5302 71.4184C67.4556 77.9743 64.3805 81.4947 57.432 84.9182C46.2075 90.4554 30.589 82.1739 22.2939 91.9592C17.7888 97.2815 14.568 105.113 13.6031 112.355C13.145 115.813 12.6313 120.567 13.3185 124.053C13.8599 126.825 13.7419 130.13 14.2695 132.556C15.4704 138.058 14.9636 141.856 14.3181 146.444C13.61 151.461 20.503 161.032 21.9052 166.111C24.7026 176.236 28.9647 177.005 34.1986 176.07C35.4204 175.848 36.3019 174.781 36.2533 173.54C35.9063 164.732 32.2272 149.839 34.3791 142.632C34.9622 140.685 35.934 137.539 38.0095 136.492C41.4526 134.746 43.3823 138.079 46.7351 139.763C54.6207 143.734 64.1861 144.628 72.9255 144.704C86.3157 144.822 99.6157 143.845 112.159 140.248C119.309 138.197 129.062 137.143 135.163 132.895C142.32 127.92 144.291 118.003 145.687 109.874C147.734 97.9676 146.742 84.7935 146.089 72.7559C145.583 63.4418 141.327 49.1935 135.517 43.393L135.524 43.4207Z" fill="#898585"/>
<path id="Vector_5" d="M25.0631 90.1644C23.0986 91.8277 20.3775 92.285 18.3714 94.0037C16.8373 95.3135 14.8729 96.9421 14.2481 98.931C14.9562 98.8617 15.2963 98.3004 16.0043 98.3212C14.9215 99.8874 13.7483 101.363 13.0125 103.145C12.4156 104.586 12.367 105.972 11.9297 107.365C12.2906 106.353 12.7557 105.549 13.7553 105.099C13.672 106.242 13.3041 107.413 13.082 108.453C13.2208 107.892 13.5193 107.4 13.8247 106.908C12.9987 109.43 11.5201 111.509 11.3605 114.267C11.2077 116.831 11.0689 119.59 11.2563 122.147C11.527 121.426 12.0754 120.851 12.4989 120.22C12.5544 122.674 12.0546 125.064 12.2212 127.573C12.5613 126.97 12.7002 126.263 13.0125 125.633C13.2763 129.687 13.5956 133.554 15.2894 137.379C15.6642 133.45 15.7475 129.909 17.594 126.326C18.3436 124.87 19.0309 123.394 19.8014 121.953C20.5927 120.477 22.2378 118.592 22.571 116.963" fill="#898585"/>
<path id="Vector_6" d="M121.037 46.2206C120.968 46.2414 120.905 46.2691 120.843 46.3037C119.239 47.2393 117.379 48.9164 116.942 50.6697C116.754 51.4251 116.893 52.9636 116.511 53.5526C115.408 55.2644 114.922 53.0537 114.276 52.0557C111.673 48.0363 106.633 46.7473 102.399 48.0778C100.178 48.7778 96.9153 49.6163 95.5478 51.432C93.2294 54.5228 91.0705 56.6227 90.2862 60.6283C88.4605 69.9354 88.1898 80.5107 93.7083 88.4942C94.9578 90.303 96.7626 91.3633 98.2759 92.874C102.17 96.7618 101.983 101.391 100.83 103.56C100.483 104.212 99.5184 104.052 99.4143 103.325C99.2338 102.091 98.8243 100.255 96.9292 98.0716C95.3812 96.2906 92.3756 96.4361 90.2376 95.2164C88.3981 94.17 86.3295 93.0057 84.7746 91.4256C84.2262 90.8712 83.303 91.4464 83.532 92.188C83.6015 92.4166 83.6709 92.6315 83.7195 92.8255C84.0596 94.1076 84.6427 95.3273 84.8995 96.6509C85.2258 98.3488 85.4965 100.192 85.3993 101.987C85.3646 102.604 84.6149 102.902 84.1498 102.493C82.5325 101.058 80.2209 99.0141 78.7146 100.594C77.479 101.89 77.597 104.69 77.486 106.318C77.1805 110.657 77.2083 114.953 78.4578 119.146C79.2005 121.634 79.9641 123.928 81.8383 125.785C85.3854 129.306 90.5916 131.343 95.2285 132.944C98.7062 134.15 103.558 135.023 107.307 134.288C109.16 133.921 110.868 133.595 112.853 133.789C114.894 133.99 116.588 135.279 118.261 136.402C118.552 136.596 118.934 136.561 119.198 136.326C120.246 135.383 120.94 134.191 122.314 133.471C124.772 132.175 127.458 131.308 130.11 130.574C134.296 129.416 139.71 123.013 142.237 114.87C143.257 111.592 144.201 102.244 142.868 102.999C141.473 103.359 140.855 104.828 140.015 105.743C139.411 106.402 138.377 105.584 138.842 104.822C140.307 102.417 140.911 99.4923 140.307 97.0875C139.96 94.856 137.391 95.4312 135.968 95.6877C132.442 96.3322 132.109 97.4687 130.832 98.4458C129.929 99.1319 129.291 100.532 128.791 102.001C128.527 102.777 127.396 102.639 127.326 101.821C127.16 100.012 127.153 98.1825 127.784 96.6509C128.923 93.9066 133.449 90.5039 135.385 88.3625C139.349 83.9827 141.591 76.6299 141.549 70.961C141.515 66.0753 140.411 64.4052 139.613 59.6373C139.134 56.7474 136.093 51.7231 134.053 49.554C130.61 45.9018 126.993 44.4811 121.044 46.2067L121.037 46.2206Z" fill="white"/>
</g>
<g id="Tail">
<path id="Vector_7" d="M29.6311 88.6466C24.7303 88.8822 20.3572 86.2072 18.3719 81.6126C14.7623 73.2341 19.7602 64.1071 28.1733 61.3697C33.1921 59.7342 37.8915 61.7509 40.7098 66.006C43.4308 70.1294 41.9037 76.5467 37.9679 79.2979C36.8503 80.081 35.8229 80.5037 34.5179 80.6423C33.1921 80.7879 30.2489 81.1898 28.9647 80.5384C28.0692 80.081 27.625 78.9237 28.923 78.6742C28.8814 77.8426 27.6944 77.5099 26.9308 77.6485C25.2093 77.9535 27.0558 81.5779 28.3746 82.0492C31.0402 82.9986 27.2015 82.2779 27.625 82.5135C33.3726 85.7498 29.0827 84.3153 28.923 85.2024C28.2913 88.6328 29.1729 87.6556 31.1582 87.6903C31.0957 88.2031 31.1721 88.7506 31.422 89.201C31.54 89.0001 31.9634 88.7575 32.0953 88.508C33.789 90.1297 35.6147 90.8712 37.114 88.6674C37.121 89.1317 37.3501 89.4782 37.5444 89.901C38.0442 89.6099 38.4607 89.0139 38.8425 88.612C39.5297 89.4159 40.5918 90.49 41.1054 88.8892C42.6187 89.797 45.6105 87.8982 46.7073 86.9973C48.5398 85.4796 51.4414 82.3679 50.5112 79.6929C53.3156 77.9812 56.5226 73.241 55.6202 69.6789C55.3564 68.6463 54.7178 67.9325 54.5095 66.893C54.1416 65.0427 54.6553 63.0953 54.2111 61.1965C53.7807 61.7509 53.4058 62.3399 53.0865 62.9636C52.5173 61.0024 52.1564 59.4639 50.8722 57.8354C49.6088 56.2345 47.2279 54.1278 45.7216 56.6365C44.7081 55.1534 43.6946 53.2823 41.5427 53.5803C41.5219 53.705 41.515 53.8298 41.515 53.9545C39.4533 52.3121 37.239 52.3467 34.8997 51.9379C33.9487 51.7715 29.3256 50.1984 28.5343 51.0439C28.1942 51.4042 28.3608 52.2358 28.4024 52.721C27.6041 51.1201 26.2922 50.9399 24.7442 50.9399C22.1273 50.9399 19.9337 50.5796 19.4201 53.4417C18.0318 53.414 16.6296 53.3724 15.2413 53.4209C15.1788 54.4258 15.2898 54.9455 14.8456 55.6455C14.5887 56.0543 13.9918 56.3038 13.7141 56.7889C13.5545 57.0661 13.8807 57.5651 13.7419 57.8077C13.0824 58.9511 10.4655 59.0967 10.1184 60.2956C9.63943 61.9657 12.8603 63.1023 13.9224 63.6359C11.2082 65.7911 7.51532 66.3386 5.50921 69.5195C4.87753 70.5244 5.07884 71.4045 4.59293 72.3678C3.71135 74.1142 4.6554 77.503 6.65457 80.0117C6.47409 81.1552 4.68317 82.1046 5.09966 83.1718C5.54392 84.3222 3.33651 84.939 4.30139 84.1282C4.27362 84.7519 4.48881 88.4318 5.93959 87.4685C6.07148 88.6397 5.85629 89.8109 5.84241 90.9821C5.93959 90.7256 6.12701 90.4762 6.22419 90.2683C6.26584 91.1553 6.12701 92.077 6.5088 92.9086C7.15436 92.479 7.70968 91.6404 8.17476 90.9959C8.47325 93.7402 10.5349 96.6232 12.5896 98.3557C13.3323 98.9794 13.5614 98.8131 14.2278 99.118C14.8456 99.4021 15.4495 99.8318 16.1089 100.137C18.0526 101.045 20.9611 99.0418 22.8631 98.4735C24.2583 98.0577 26.0353 97.6904 27.0141 96.5331C28.3052 95.0085 27.6805 92.9156 28.1039 91.1068" fill="#898585"/>
<path id="Vector_8" d="M52.1771 79.9702C55.4396 80.0395 60.7152 77.2951 61.4371 73.8231C61.1664 74.0934 60.7985 74.1974 60.5139 74.4122C60.7082 73.7954 61.1802 73.2202 61.1594 72.5134C60.4861 72.4856 59.7572 72.5342 59.1117 72.4579C60.0002 69.7483 60.1737 66.4772 59.8683 63.6498C59.66 61.7093 58.8201 59.8936 58.5147 58.0017C58.4106 58.1195 58.2162 58.2304 58.0913 58.3621C57.772 57.0731 57.1056 55.5 56.5364 54.3496C56.4531 54.6475 56.1754 54.904 56.0713 55.1742C55.4743 54.3218 53.8153 51.0578 52.8573 51.5082C51.0109 49.8034 49.692 47.5095 48.0191 45.6453C47.8664 46.1166 47.79 46.6225 47.7553 47.1215C47.1653 46.574 46.603 45.9364 45.8533 45.5899C45.6104 45.978 45.652 46.567 45.6312 47.0799C44.7982 46.5809 43.875 45.4998 42.806 45.4305C42.7574 45.8879 42.7435 46.3661 42.7713 46.8373C40.7652 45.8186 38.9951 44.9177 36.7183 45.0424C36.989 45.3612 37.1417 45.68 37.3708 46.0126C36.1838 44.2593 31.7689 44.1415 30.0127 44.0583C30.1724 44.4326 30.3251 44.9454 30.3876 45.2988C25.9866 45.5691 20.4473 44.294 16.7683 47.2601C17.4347 47.7729 18.2954 48.0016 18.9826 48.4867C17.7956 48.452 16.0116 48.1125 14.9496 48.7847C15.0537 48.8471 15.1925 48.9649 15.3661 49.0411C14.8802 49.3737 14.1513 49.4292 13.714 49.5747C14.1027 49.8034 13.95 49.9004 14.1305 50.1014C13.7071 50.0737 13.3877 50.3855 13.0198 50.441C13.1448 50.6489 13.1379 50.8706 13.3392 51.0924C10.2016 52.4438 8.5009 53.4071 6.46009 56.2138C5.80759 57.1147 5.09955 57.9671 4.57893 58.9234C5.05096 58.9858 5.58546 58.9511 6.08525 58.9858C5.99501 59.5402 5.39109 60.0808 5.15508 60.5589C4.9746 60.9262 5.04402 61.6054 4.6067 62.0697C4.86354 61.9103 5.11343 61.7786 5.35639 61.5915C1.06652 64.5507 1.30947 69.4087 0.289062 74.135C0.913801 73.6776 1.62184 72.9292 2.12857 72.2916C1.93421 73.4489 1.24005 74.4399 1.15675 75.6388C1.30253 75.5002 1.51772 75.3894 1.66349 75.2715C1.53854 76.9694 0.774971 78.5218 0.823561 80.2959C0.9971 79.8038 1.14287 79.2841 1.46912 78.9861C1.70514 80.3305 1.57325 81.8759 1.51077 83.2412C1.62184 82.8739 1.83008 82.5274 1.95503 82.167C1.87173 85.0499 1.82314 88.0992 2.76719 90.8504C3.26004 92.2988 4.16938 93.276 4.84965 94.5719C4.83577 93.6779 4.84965 92.7839 4.82883 91.8899C5.09261 93.5324 5.92559 94.8214 6.23102 96.3668C6.29349 95.9094 6.34903 95.4451 6.38373 94.9877C6.55033 95.3065 6.82799 95.556 6.95988 95.951C7.08483 95.9787 7.0293 95.847 7.15424 95.8817C7.32084 96.2628 7.61933 96.5123 7.79287 96.8935C7.79981 96.4985 7.9664 95.9648 8.015 95.6114C8.93822 100.213 15.1648 100.31 18.934 100.386C19.0035 99.1943 17.3167 98.4389 16.7405 97.5102C18.6008 98.5498 18.7327 99.0002 20.121 97.7875C21.2247 96.8172 22.7241 96.0896 23.6682 94.9808C24.8274 93.6155 24.0777 93.671 22.8768 93.0958C20.2321 91.8276 18.3509 90.6356 15.9283 88.9377C14.0958 87.6487 13.2906 85.5974 12.9782 83.352C12.6797 81.176 12.645 78.5079 12.888 76.2833C13.714 68.6533 18.7813 62.2637 25.9033 59.2283C31.3177 56.9206 37.3222 57.2671 41.6953 61.1341C45.3049 64.322 45.4438 71.1135 43.868 75.5072C42.7157 78.7158 38.5439 81.4809 35.0801 81.4878C31.6162 81.5017 28.6522 76.616 33.1781 75.6666C33.4557 73.6638 30.5681 76.2972 30.1724 76.7684C30.0822 74.2597 30.1516 73.3034 27.5346 74.8142C27.4652 74.5577 27.2014 74.3152 27.1389 74.0796C26.7363 74.5162 26.3823 75.0567 25.8964 75.2646C25.82 76.6853 25.8686 78.1198 25.8756 79.5405C25.7923 79.0069 25.5354 78.8821 25.0842 78.5841C25.0079 79.2078 25.0634 79.8523 25.0426 80.4899C24.7372 80.4275 24.279 80.6147 23.9597 80.5384C23.6126 82.0145 25.8548 82.0769 26.5906 82.86C25.7784 83.0263 25.2647 83.7956 25.9728 84.4124C24.4803 84.946 24.4248 85.9508 26.0075 86.2072C25.6812 88.0437 26.7224 88.4041 28.2079 87.9883C28.7563 89.0902 29.8531 89.9911 30.9498 88.9377C32.2271 90.7395 32.5603 89.9356 34.4831 89.5753C34.6497 90.2059 34.7122 90.996 34.9343 91.682C35.9963 91.8761 38.0788 92.3681 38.7799 91.3425C38.9743 92.4513 39.3283 92.6453 40.0016 93.3938C40.7999 93.0057 41.2858 92.1671 41.9522 91.5919C43.7223 92.5206 43.9444 92.5414 45.3744 91.0098C47.1861 93.5462 48.5328 88.8545 49.6434 87.8428C52.1354 85.5835 53.9402 83.7678 52.1562 79.9632L52.1771 79.9702Z" fill="white"/>
</g>
<g id="Head">
<g id="Ear">
<path id="Vector_9" d="M134.761 45.285C135.587 36.8649 137.225 26.0124 132.706 18.3615C130.076 13.9124 125.89 16.5251 123.37 19.8446C121.156 22.7691 112.104 34.6889 110.209 37.8282C108.828 40.1151 112.722 35.4373 112.625 38.0985C112.402 44.2039 125.897 46.1443 130.61 46.6641" fill="#898585"/>
<path id="Vector_10" d="M133.567 41.4735C133.963 35.3473 134.761 27.4539 132.574 21.889C131.304 18.6527 129.277 20.5515 128.062 22.9701C126.993 25.0977 123.786 28.8399 122.87 31.1269C122.204 32.7901 120.086 34.3147 120.038 36.2482C119.934 40.6904 131.707 43.3377 133.574 41.4735" fill="white"/>
</g>
<g id="Ear_2">
<path id="Vector_11" d="M86.7594 45.285C85.9334 36.8649 84.2952 26.0124 88.8141 18.3615C91.445 13.9124 95.6307 16.5251 98.1505 19.8446C100.365 22.7691 109.417 34.6889 111.312 37.8282C112.693 40.1151 108.799 35.4373 108.896 38.0985C109.118 44.2039 95.6238 46.1443 90.9105 46.6641" fill="#898585"/>
<path id="Vector_12" d="M87.9539 41.4735C87.5582 35.3473 86.7599 27.4539 88.9465 21.889C90.2168 18.6527 92.2438 20.5515 93.4585 22.9701C94.5275 25.0977 97.7415 28.8399 98.6508 31.1269C99.3172 32.7901 101.434 34.3147 101.483 36.2482C101.587 40.6904 89.8142 43.3377 87.9469 41.4735" fill="white"/>
</g>
<g id="Face">
<path id="Vector_13" d="M125.654 84.6826C123.454 87.9675 120.476 87.2398 116.984 87.3992C117.318 90.2128 120.059 90.0812 122.454 89.8594C125.182 89.603 125.8 87.9813 125.661 84.6826H125.654Z" fill="#504E4E"/>
<path id="Vector_14" d="M105.641 63.1023C107.152 63.1023 108.376 61.8798 108.376 60.3718C108.376 58.8638 107.152 57.6414 105.641 57.6414C104.131 57.6414 102.906 58.8638 102.906 60.3718C102.906 61.8798 104.131 63.1023 105.641 63.1023Z" fill="#504E4E"/>
<path id="Vector_15" d="M126 59.6373C126 61.2797 127.333 62.6172 128.985 62.6172C130.637 62.6172 131.97 61.2867 131.97 59.6373C131.97 57.9879 130.637 56.6573 128.985 56.6573C127.333 56.6573 126 57.9879 126 59.6373Z" fill="#504E4E"/>
<path id="Vector_16" d="M123.161 67.108C121.599 67.0248 119.996 67.0941 118.455 67.205C117.663 67.2674 117.164 67.2397 117.302 68.2099C117.629 70.5522 121.46 73.3104 122.946 70.5107C123.383 69.686 123.293 68.397 123.168 67.108H123.161Z" fill="#504E4E"/>
<g id="Group">
<path id="Vector_17" d="M127.923 66.505C128.069 68.5009 126.896 71.467 125.736 73.2133C125.334 73.8163 124.709 74.3845 123.932 74.5509C123.203 74.7033 122.12 74.5509 121.578 74.0242C121.238 73.6915 121.28 73.345 121.037 73.0193C120.704 74.4677 120.121 74.7934 118.441 74.6202C117.115 74.4816 115.22 74.0796 114.193 73.3173C112.728 72.2223 111.402 70.7532 111.013 69.1038C110.888 68.5632 110.696 67.7409 110.437 66.6367C110.278 67.9465 110.694 69.6236 111.111 70.864C111.617 72.3817 112.478 73.4282 113.748 74.5578C115.088 75.7428 116.768 76.9625 118.621 77.2675C120.273 77.5377 122.717 77.7318 124.07 76.7754C125.688 75.625 127.229 73.9479 127.624 72.0283C127.916 70.6146 128.624 68.0573 127.916 66.5119L127.923 66.505Z" fill="#504E4E"/>
<path id="Vector_18" d="M125.022 74.4886C124.112 74.9876 123.925 75.0153 123.078 75.043C122.738 75.0569 121.114 74.4124 121.114 74.4124C121.114 74.4124 120.191 75.2994 119.205 75.237C118.469 75.1885 117.692 74.8282 117.039 74.8143C117.351 75.9924 117.414 77.1844 117.837 78.3348C118.171 79.2426 118.413 80.1713 118.99 80.9544C119.364 81.4672 120.725 81.682 121.364 81.7998C122.141 81.9384 123.474 81.8345 124.085 81.4256C125.376 80.5732 125.591 79.6654 125.654 78.6259C125.695 77.9467 125.036 75.2994 125.022 74.4886Z" fill="#898585"/>
</g>
</g>
</g>
</g>
<g id="Cat">
<g id="Body_2">
<path id="Tail_2" d="M198.936 121.122C205.473 125.833 208.781 142.128 197.825 143.245L197.811 143.251C198.181 144.202 198.482 145.254 198.784 146.31C199.481 148.753 200.185 151.217 201.765 152.502C203.649 154.03 206.032 152.715 207.996 151.372C213.135 147.857 217.275 142.394 219.951 136.832C220.835 134.992 221.396 133.148 221.716 131.295L221.788 131.502C223.587 129.913 224.054 128.612 224.37 126.477C224.383 126.513 224.397 126.549 224.411 126.584C224.424 126.461 224.429 126.337 224.434 126.212C224.439 126.087 224.444 125.963 224.458 125.84C224.429 126.061 224.4 126.273 224.37 126.477C224.271 126.205 224.193 125.899 224.114 125.593C223.944 124.93 223.775 124.269 223.399 123.972C223.048 122.783 222.983 121.481 222.918 120.179C222.872 119.262 222.826 118.345 222.68 117.466C222.634 117.665 222.567 117.862 222.498 118.063C222.389 118.38 222.278 118.707 222.241 119.061C221.966 117.925 221.809 116.698 221.649 115.452C221.318 112.867 220.976 110.202 219.552 108.103C219.552 108.934 219.372 109.791 218.959 110.422L218.958 110.413C218.792 108.971 218.557 106.932 216.989 106.481C216.989 106.679 216.93 106.937 216.87 107.196C216.853 107.269 216.836 107.342 216.82 107.414C215.18 105.012 213.144 102.959 210.832 101.816C209.541 101.179 208.163 101.107 206.793 101.036C205.817 100.985 204.844 100.934 203.909 100.68C201.374 99.9891 201.533 98.778 201.73 97.2765C201.816 96.6251 201.909 95.9191 201.792 95.1772C200.945 95.1164 200.086 95.245 199.257 95.3692C199.181 95.3806 199.105 95.392 199.03 95.4032C199.269 93.8747 199.509 90.9905 198.916 89.6614C198.607 89.8334 198.253 89.9108 197.902 89.9877C197.588 90.0564 197.276 90.1247 196.999 90.2595C196.76 89.575 196.64 88.7642 196.66 88C193.139 88.0864 188.825 89.5816 186.915 92.7582C186.906 92.5859 186.821 92.3339 186.729 92.0598C186.615 91.7207 186.489 91.348 186.482 91.0503C186.276 91.2526 185.94 91.3862 185.624 91.5118C185.358 91.6174 185.107 91.7173 184.958 91.8478C184.989 91.6328 184.964 91.3907 184.938 91.1495C184.91 90.8837 184.882 90.6189 184.931 90.3924C180.704 95.4098 178.268 98.9187 178.295 106.229C178.296 106.595 178.294 106.971 178.292 107.354C178.272 110.905 178.249 115.044 181.41 117.294C182.931 118.372 184.734 118.307 186.535 118.242C186.965 118.226 187.394 118.211 187.82 118.211C192.034 118.197 195.468 118.623 198.936 121.122Z" fill="#BFBFBF"/>
<path id="Vector_19" d="M205.193 143.85C207.19 144.023 210.212 146.123 211.456 147.618C212.189 148.502 213.054 149.559 213.42 150.655C212.981 150.25 212.382 149.844 211.982 149.525C212.335 150.343 213.3 151.679 213.26 152.436C212.981 152.217 212.648 152.064 212.382 151.825C212.548 152.955 213.134 153.971 213.187 155.128C213.187 155.035 213.174 154.948 213.167 154.855C213.973 157.567 214.745 160.71 214.372 163.528C214.012 163.229 213.78 162.757 213.52 162.444C214.186 166.139 215.071 169.542 214.711 173.336C214.685 173.15 214.625 172.918 214.605 172.718C214.425 173.802 214.432 174.892 214.385 175.981C214.319 175.855 214.126 175.656 214.046 175.45C213.866 176.347 213.62 177.237 213.294 178.081C213.2 178.042 213.16 177.962 213.187 177.849C212.388 178.673 212.089 179.982 211.163 180.733C210.957 180.181 210.624 179.643 210.398 179.085C209.772 179.836 209.386 180.892 208.627 181.511C208.541 181.285 208.268 181.085 208.181 180.846C207.076 181.205 205.732 183.464 204.76 184.249C204.241 183.112 204.267 181.537 204.014 180.294C203.508 177.756 203.269 174.639 202.084 172.313" fill="#BFBFBF"/>
<path id="Vector_20" d="M144.119 177.63C148.12 184.122 149.444 193.1 149.444 200.736C149.444 202.285 149.531 203.866 149.444 205.415C149.391 206.312 148.672 207.973 148.945 208.784C149.571 210.671 152.307 209.256 153.345 208.591C157.306 206.046 158.75 200.936 159.17 196.543C159.596 192.11 163.683 184.574 163.723 180.095C163.729 179.344 160.854 181.178 160.601 180.454C159.988 178.699 157.153 177.61 155.768 176.467" fill="#BFBFBF"/>
<path id="Vector_21" d="M126.878 158.41C127.098 155.44 128.529 137.424 124.309 170.545C123.99 173.037 124.369 175.556 124.489 178.061C124.675 181.896 124.475 185.837 123.777 189.618C123.098 193.286 122.059 202.756 121.367 203.454C120.049 204.77 120.548 205.581 121.32 205.734C129.741 207.422 131.252 196.184 133.302 193.745C135.645 190.954 142.535 180.633 143.786 176.965C144.558 174.712 139.533 180.873 139.366 178.473C139.186 175.875 135.605 172.632 134.054 170.891" fill="#BFBFBF"/>
<path id="Vector_22" d="M177.402 184.607C177.728 189.492 179.233 194.529 178.381 199.52C177.981 201.852 177.103 203.66 175.845 205.541C174.24 207.933 175.459 209.488 178.248 208.073C180.897 206.73 183.659 204.983 185.65 202.703C187.673 200.39 188.552 197.606 189.131 194.536C189.697 191.525 189.857 188.661 191.115 185.69C191.634 184.468 192.772 182.913 192.393 181.484C191.614 178.56 185.716 179.636 183.227 179.623" fill="#BFBFBF"/>
<path id="Vector_23" d="M167.756 136.154C172.895 143.857 181.255 141.464 189.283 140.261C194.735 139.444 200.453 140.115 204.82 143.445C211.509 148.548 212.894 158.025 212.927 166.319C212.94 169.502 213.52 173.13 211.902 175.875C210.691 177.922 208.734 179.769 207.602 181.69C205.465 185.325 208.913 188.143 208.161 191.931C207.336 196.117 205.199 200.723 203.368 204.511C203.095 205.082 202.263 207.023 201.624 207.315C201.019 207.601 199.428 207.302 199.008 206.578C198.309 205.368 200.027 198.736 195.866 190.097C194.029 186.275 192.758 187.053 188.211 182.507C184.664 185.179 181.735 184.242 177.588 185.877C174.506 187.086 158.344 187.272 152.446 184.926C148.592 183.391 144.818 180.753 141.429 178.4C139.672 177.184 136.883 175.071 136.151 172.904C134.853 169.057 135.798 163.268 135.598 159.241C135.259 152.31 139.439 146.249 144.731 141.949C147.427 139.756 149.384 139.989 152.22 138.74" fill="#BFBFBF"/>
<path id="Vector_24" d="M120.814 136.48C120.834 139.61 118.265 142.488 117.925 145.697C117.533 149.412 118.944 152.449 119.523 155.965C119.716 154.928 120.182 153.891 120.774 153.107C120.908 155.187 121.041 157.394 121.067 159.447C121.154 159.354 121.207 159.248 121.227 159.122C121.54 160.331 121.953 161.62 122.299 162.763C122.751 162.165 122.951 161.428 122.871 160.67C123.583 162.152 124.469 164.205 124.948 165.568C124.988 164.936 125.261 164.185 125.347 163.614C126.432 167.342 127.125 170.625 129.075 173.928C130.1 175.662 131.585 177.224 132.656 178.899C132.663 178.533 132.829 178.101 132.836 177.703C135.612 179.005 140.504 184.388 143.593 181.936C144.039 182.541 144.605 182.793 145.191 183.132C145.211 183.019 145.217 182.906 145.211 182.793C146.469 183.179 150.469 187.086 151.754 187.372C151.754 187.372 153.837 180.248 154.11 177.955C154.49 174.785 156.207 172.054 157.019 168.91C157.878 170.439 158.038 172.333 158.81 173.921C159.063 172.579 160.001 171.409 160.607 170.22C162.338 166.83 163.223 163.202 163.949 159.447C164.867 154.722 165.493 150.828 165.719 146.03C165.912 146.302 166.518 146.635 166.744 146.947C168.222 142.116 167.137 137.975 165.353 133.503C164.961 132.513 164.448 130.459 163.556 129.821C161.985 128.705 158.224 130.386 156.613 130.738C146.382 132.985 136.171 133.516 125.78 133.603" fill="white"/>
</g>
<g id="Head_2">
<g id="Ear_3">
<path id="Vector_25" d="M128.882 104.262C128.655 103.485 127.577 102.847 127.051 102.275C125.74 100.853 124.775 99.1784 123.397 97.7829C122.738 97.1117 122.112 96.4072 121.44 95.7493C121.24 95.5566 120.947 95.2376 120.601 94.8854C119.489 93.7623 117.579 94.3205 117.239 95.8623C117.14 96.3075 117.053 96.7594 116.96 97.1914C116.081 101.265 115.921 105.219 115.728 109.359C115.662 110.728 115.356 112.463 115.728 113.799C116.241 115.633 118.005 117.633 119.702 118.437C120.92 119.015 121.453 118.763 122.558 118.032C124.002 117.068 124.229 116.038 125.061 114.596C125.527 113.785 126.346 113.174 126.712 112.323" fill="#BFBFBF"/>
<path id="Vector_26" d="M124.328 109.512C124.135 107.665 120.807 103.126 120.062 101.491C119.735 100.78 119.536 99.9361 119.116 99.245C118.937 98.9459 118.477 99.0722 118.444 99.4177C118.318 100.727 117.938 102.109 117.812 103.392C117.672 104.781 117.539 106.17 117.419 107.559C117.272 109.207 116.926 112.024 117.652 113.48C117.878 113.925 118.025 114.217 118.464 114.104C118.923 113.985 119.935 111.759 120.208 111.24C120.681 110.336 121.2 109.266 121.473 108.29" fill="white"/>
</g>
<g id="Ear_4">
<path id="Vector_27" d="M149.951 103.299C150.051 102.495 151.016 101.691 151.442 101.046C152.514 99.431 153.2 97.6234 154.338 96.0285C154.884 95.2642 155.39 94.4668 155.942 93.7158C156.108 93.4965 156.348 93.131 156.628 92.7323C157.546 91.443 159.523 91.6956 160.102 93.1642C160.269 93.5896 160.429 94.0215 160.588 94.4335C162.106 98.3212 162.885 102.196 163.737 106.256C164.016 107.598 164.596 109.26 164.442 110.642C164.229 112.536 162.805 114.789 161.254 115.852C160.142 116.616 159.577 116.45 158.372 115.899C156.794 115.174 156.408 114.197 155.356 112.902C154.764 112.171 153.865 111.699 153.366 110.921" fill="#BFBFBF"/>
<path id="Vector_28" d="M155.182 107.552C155.083 105.698 157.739 100.9 158.218 99.1651C158.424 98.4142 158.491 97.5436 158.797 96.7993C158.93 96.4803 159.396 96.5268 159.489 96.8591C159.822 98.1351 160.414 99.4376 160.747 100.687C161.1 102.036 161.46 103.385 161.799 104.741C162.205 106.349 162.991 109.067 162.505 110.622C162.352 111.101 162.258 111.406 161.799 111.366C161.333 111.32 158.118 115.666 157.772 115.194C157.159 114.377 155.615 110.629 155.196 109.712" fill="white"/>
</g>
<path id="Head_3" d="M121.18 108.695C118.939 111.402 117.044 114.882 115.496 119.135C114.872 120.184 114.272 121.483 113.744 122.95C111.457 124.908 110.191 127.139 109.312 130.074C109.402 129.923 109.538 129.774 109.671 129.63C109.784 129.506 109.894 129.386 109.971 129.27C110.011 130.079 109.89 130.776 109.766 131.49C109.686 131.954 109.604 132.425 109.565 132.938C109.651 132.925 109.738 132.938 109.818 132.971C109.759 133.204 109.697 133.436 109.634 133.669C109.467 134.287 109.299 134.908 109.212 135.55C109.363 135.426 109.556 135.353 109.735 135.285C109.873 135.233 110.002 135.184 110.097 135.118C110.186 136.758 109.487 138.499 108.804 140.199C108.312 141.427 107.827 142.632 107.654 143.764C107.732 143.719 107.811 143.673 107.89 143.626C108.418 143.317 108.969 142.995 109.525 142.873C109.477 143.113 109.497 143.367 109.517 143.617C109.535 143.858 109.554 144.096 109.511 144.315C109.588 144.231 109.689 144.149 109.783 144.072C109.845 144.022 109.904 143.974 109.951 143.93C109.947 144.206 110.069 144.47 110.188 144.725C110.269 144.9 110.348 145.071 110.383 145.239C110.517 145.186 110.685 145.182 110.838 145.18C110.952 145.177 111.059 145.175 111.136 145.153C111.093 145.317 111.129 145.536 111.163 145.746C111.192 145.926 111.22 146.099 111.196 146.222C111.795 146.103 112.38 145.923 112.966 145.744C112.826 146.296 112.607 146.84 112.321 147.346C113.053 147.416 113.834 147.318 114.615 147.221C115.162 147.152 115.71 147.084 116.241 147.073C116.147 147.217 116.066 147.481 115.983 147.754C115.889 148.059 115.792 148.376 115.669 148.548C117.192 148.632 118.814 148.719 120.418 148.68C123.298 149.523 126.549 149.186 129.866 148.75L125.753 149.386C128.003 150.894 131.092 152.556 133.661 153.141C133.641 152.957 133.643 152.79 133.644 152.627C133.649 152.272 133.653 151.941 133.415 151.526C133.56 151.736 133.75 151.904 133.938 152.071C134.077 152.195 134.215 152.318 134.334 152.456C134.334 152.341 134.353 152.199 134.374 152.049C134.4 151.86 134.428 151.66 134.42 151.486C134.531 151.56 134.671 151.608 134.823 151.659C135.064 151.741 135.334 151.833 135.558 152.057C135.558 152.011 135.583 151.912 135.614 151.786C135.677 151.53 135.767 151.168 135.732 150.928C136.23 151.118 136.708 151.365 137.183 151.611C137.851 151.957 138.515 152.3 139.226 152.483C139.212 152.324 139.262 152.095 139.31 151.876C139.352 151.683 139.392 151.497 139.386 151.373C139.946 151.602 140.517 151.78 141.076 151.955C141.588 152.115 142.091 152.272 142.568 152.463C142.628 152.218 142.721 151.976 142.814 151.733C142.969 151.33 143.125 150.923 143.134 150.496C144.151 150.452 144.915 150.625 145.607 150.782C146.693 151.028 147.602 151.235 149.038 150.496C150.659 149.665 152.32 148.785 153.966 147.912C154.73 147.507 155.491 147.104 156.244 146.708C159.963 146.339 163.804 145.695 166.645 144.215C166.751 144.202 166.857 144.189 166.963 144.175L167.104 144.158C167.934 144.053 168.763 143.949 169.587 143.87C169.537 143.692 169.565 143.467 169.592 143.253C169.615 143.066 169.638 142.887 169.607 142.754C169.971 142.739 170.349 142.754 170.731 142.769C171.58 142.802 172.445 142.837 173.208 142.547C173.204 142.386 173.268 142.201 173.326 142.035C173.371 141.907 173.411 141.79 173.414 141.704C173.927 141.929 174.532 142.116 175.025 142.195C175.249 141.097 174.816 140.014 174.405 138.988C174.07 138.152 173.751 137.353 173.813 136.613C174.159 136.779 174.484 136.979 174.809 137.179C175.11 137.364 175.411 137.55 175.731 137.71C175.744 136.593 175.518 135.324 175.225 134.267C175.089 133.774 174.786 133.23 174.478 132.675C174.001 131.818 173.509 130.933 173.594 130.167C173.674 130.185 173.825 130.184 173.983 130.182C174.165 130.18 174.356 130.178 174.459 130.207C173.927 129.03 173.075 127.867 172.123 126.99C172.283 127.045 172.478 127.057 172.673 127.07C172.86 127.082 173.048 127.094 173.208 127.143C172.682 126.731 172.402 126.066 172.529 125.409C171.47 124.844 170.405 123.893 169.7 122.95C169.78 122.944 169.888 122.915 170.007 122.882C170.174 122.836 170.365 122.784 170.532 122.784C170.076 121.59 168.533 120.711 167.184 119.996C166.635 118.967 166.085 118.032 165.566 117.228C165.17 116.615 164.786 116.004 164.405 115.398C162.573 112.482 160.805 109.667 157.978 107.153C153.065 102.78 150.449 102.202 143.879 102.202L143.643 102.202C135.766 102.202 126.545 102.201 121.18 108.695Z" fill="#BFBFBF"/>
<g id="Face_2">
<path id="Vector_29" d="M131.058 124.385C131.165 125.535 130.313 126.558 129.161 126.665C128.01 126.771 126.985 125.92 126.878 124.771C126.772 123.621 127.624 122.597 128.775 122.491C129.927 122.385 130.952 123.235 131.058 124.385Z" fill="#504E4E"/>
<path id="Vector_30" d="M153.592 122.052C153.698 123.202 152.846 124.226 151.695 124.332C150.543 124.438 149.518 123.588 149.411 122.438C149.305 121.288 150.157 120.265 151.308 120.159C152.46 120.052 153.485 120.903 153.592 122.052Z" fill="#504E4E"/>
<path id="Vector_31" d="M138.267 124.339C139.478 123.794 141.076 123.548 142.407 123.707C142.82 123.754 143.172 123.714 143.359 124.119C143.519 124.472 143.385 124.99 143.279 125.316C142.946 126.346 142.201 127.489 141.049 127.548C140.071 127.595 139.045 127.09 138.327 126.459C138.034 126.199 136.756 124.904 138.267 124.332V124.339Z" fill="#504E4E"/>
<path id="Vector_32" d="M138.227 133.224C139.072 133.144 139.691 133.151 140.263 132.599C140.896 131.988 141.335 131.204 141.408 130.413C141.515 129.203 141.249 127.954 141.142 126.751C141.175 128.034 141.901 129.276 142.3 130.466C142.513 131.104 142.666 131.635 143.219 132.127C143.865 132.699 145.229 132.891 145.795 132.234" stroke="#504E4E" stroke-width="0.61231" stroke-linecap="round" stroke-linejoin="round"/>
<path id="Vector_33" d="M146.502 137.424C146.854 140.494 142.401 142.235 139.932 142.069C141.083 142.335 144.465 143.278 145.743 142.527C146.994 141.79 146.635 138.985 146.495 137.424H146.502Z" fill="#504E4E"/>
</g>
<path id="Vector_34" d="M138.973 121.494C138.135 120.657 136.217 117.141 136.237 115.899C136.217 115.965 136.237 116.078 136.237 116.145C136.231 116.098 136.237 116.052 136.244 116.005C136.311 116.018 136.357 116.058 136.384 116.125C136.417 115.932 136.404 115.713 136.397 115.5C136.457 115.653 136.597 115.792 136.657 115.879C136.697 115.234 136.317 114.483 136.124 113.865C135.765 112.735 135.472 111.632 135.419 110.443C135.379 109.546 135.445 108.662 135.479 107.784C135.825 108.137 135.858 108.708 136.344 108.967C136.364 108.216 136.371 107.465 136.397 106.715C136.41 106.236 136.224 105.485 136.53 105.08C137.589 105.684 137.882 107.765 138.174 108.834C138.341 109.439 138.447 110.004 138.561 110.596C138.587 110.29 138.8 109.997 138.993 109.791C139.446 111.021 139.206 112.696 139.166 113.978C139.259 113.779 139.379 113.599 139.552 113.473C139.672 114.031 139.479 114.689 139.679 115.208C139.745 115.121 139.885 115.068 139.938 114.995C140.085 116.882 139.586 120.438 138.96 121.494H138.973Z" fill="white"/>
<g id="Wiskers">
<g id="Group_2">
<path id="Vector_35" d="M124.329 127.941C121.454 125.508 113.027 126.392 109.399 126.797C105.012 127.283 100.559 129.117 96.1523 129.05" stroke="white" stroke-width="2" stroke-linecap="round" stroke-linejoin="round"/>
<path id="Vector_36" d="M117.893 131.489C110.365 131.29 104.8 137.191 97.9238 138.799" stroke="white" stroke-width="2" stroke-linecap="round" stroke-linejoin="round"/>
<path id="Vector_37" d="M122.147 134.081C115.49 137.969 106.617 141.311 101.512 147.153" stroke="white" stroke-width="2" stroke-linecap="round" stroke-linejoin="round"/>
<path id="Vector_38" d="M121.447 137.424C116.801 140.966 112.294 144.847 107.914 148.721" stroke="white" stroke-width="2" stroke-linecap="round" stroke-linejoin="round"/>
</g>
<g id="Group_3">
<path id="Vector_39" d="M159.33 125.502C161.567 122.471 169.974 121.388 173.588 120.943C177.968 120.405 182.728 121.155 187.001 120.079" stroke="white" stroke-width="2" stroke-linecap="round" stroke-linejoin="round"/>
<path id="Vector_40" d="M166.406 127.462C173.682 125.528 180.465 129.987 187.527 129.961" stroke="white" stroke-width="2" stroke-linecap="round" stroke-linejoin="round"/>
<path id="Vector_41" d="M162.871 130.964C170.253 133.211 179.659 134.413 185.976 138.919" stroke="white" stroke-width="2" stroke-linecap="round" stroke-linejoin="round"/>
<path id="Vector_42" d="M164.33 134.054C169.669 136.434 174.954 139.165 180.113 141.923" stroke="white" stroke-width="2" stroke-linecap="round" stroke-linejoin="round"/>
</g>
</g>
</g>
</g>
<g id="Bird">
<g id="Tail_3">
<path id="Vector_43" d="M201.562 68.9212C202.894 71.7788 204.897 74.2776 206.488 76.989C208.645 80.6706 210.429 85.1763 213.152 88.4592C214.083 89.5823 215.195 90.5459 216.307 91.4298C216.513 89.908 215.614 87.4225 215.155 85.9339C213.697 81.2023 211.035 75.5868 207.933 71.7523C209.364 75.7197 212.493 79.7269 214.689 83.3288C216.227 85.8542 216.959 89.0374 219.202 91.0909C219.309 86.12 218.051 80.9963 215.102 76.8561C213.305 74.3307 211.301 71.739 209.397 69.2203C207.56 66.788 207.114 67.2333 203.772 67.2333" fill="#BFBFBF"/>
<path id="Vector_44" d="M199.198 49.9547C201.675 51.7357 202.34 53.4237 203.725 56.1351C205.762 60.1158 207.898 64.0766 210.355 67.818C212.232 70.6756 214.142 73.7591 216.053 76.4838C212.445 77.2746 210.787 74.3041 208.038 72.2705C208.79 73.8123 211.193 76.3044 210.934 78.0987C209.616 78.4642 208.085 76.012 207.219 75.2544C207.326 76.5835 207.719 77.8993 207.646 79.2417C202.427 80.2452 199.744 69.6921 198.033 66.6351C197.168 65.08 196.516 63.6047 195.923 61.9167C195.551 60.8667 192.662 55.4373 192.961 54.5867C193.341 53.53 193.893 53.869 194.971 53.2376C196.263 52.48 196.955 50.9648 199.198 49.9547Z" fill="white"/>
</g>
<path id="Stick" d="M151.491 65.5586C151.038 63.8639 152.389 62.2557 154.14 62.3687C157.694 62.6013 161.622 62.1294 164.75 61.9965C169.383 61.8038 173.996 61.7307 178.636 61.7307C182.47 61.7307 186.298 61.7307 190.132 61.7307C196.489 61.7307 202.846 61.9168 209.196 61.8969C211.233 61.8969 213.27 61.8969 215.3 61.8969C216.019 61.8969 217.723 61.6044 218.409 62.063C219.387 62.7209 219.367 63.8374 219.168 65.1133C218.848 67.1601 217.936 66.9209 215.839 66.9741C207.672 67.1801 199.511 67.4658 191.33 67.1469C178.856 66.6617 166.381 67.6652 153.927 67.5057C152.795 67.4924 151.81 66.7215 151.517 65.6317C151.511 65.5984 151.504 65.5719 151.491 65.5386V65.5586Z" fill="#898585"/>
<g id="Body + Head">
<path id="Wing" d="M164.637 27.1804C160.909 25.3263 161.063 31.0548 161.282 33.1813C161.808 38.1389 167.047 44.2263 170.568 47.6687C169.616 42.8041 166.468 38.2519 165.536 33.507" fill="#898585"/>
<path id="Body_3" d="M176.113 6.61895C159.079 8.67243 159.226 52.9917 182.084 60.5411C185.685 61.7307 191.909 60.7471 195.677 60.0161C200.017 59.1721 203.146 57.5506 204.876 52.799C206.66 47.8879 204.69 39.9731 203.432 35.1085C202.16 30.1908 196.615 26.1636 193.474 22.143C189.333 16.8531 185.579 5.47591 176.113 6.61895Z" fill="#BFBFBF"/>
<g id="Feet">
<path id="Vector_45" d="M181.065 58.6072C177.291 56.8262 178.349 64.5484 179.301 66.4889C179.521 66.861 179.54 66.9408 179.84 66.6484C180.199 65.8044 179.427 62.8405 180.566 61.5512C180.679 62.9468 180.339 66.6816 181.038 66.5288C182.383 65.9705 181.664 62.8538 182.216 61.518C182.622 64.2693 182.157 65.2196 182.895 66.336C183.048 66.5686 183.388 66.5288 183.488 66.2696C184.446 63.731 184.213 58.3414 181.071 58.6072" fill="#504E4E"/>
<path id="Vector_46" d="M189.426 58.9262C185.652 57.1452 186.71 64.8674 187.662 66.8079C187.882 67.18 187.902 67.2598 188.201 66.9674C188.561 66.1234 187.789 63.1594 188.927 61.8702C189.04 63.2658 188.701 67.0006 189.4 66.8477C190.744 66.2895 190.025 63.1727 190.578 61.837C190.984 64.5882 190.518 65.5386 191.257 66.6484C191.41 66.881 191.749 66.8411 191.849 66.5819C192.808 64.0433 192.575 58.6538 189.433 58.9196" fill="#504E4E"/>
</g>
<g id="Head_4">
<path id="Vector_47" d="M166.375 41.1959C166.521 40.2124 166.368 39.2089 166.588 38.2121C167.134 39.1159 167.513 40.3652 168.432 40.9434C168.498 40.7839 168.571 40.6244 168.651 40.4649C169.171 40.764 169.51 41.3288 170.076 41.5481C170.422 40.8636 170.442 40.0529 170.415 39.282C171.041 40.2655 171.653 41.3687 172.519 42.1728C172.885 41.8405 173.005 41.3488 172.898 40.8171C173.764 41.4418 174.409 42.8839 175.667 42.8905C175.927 42.2592 175.834 41.4285 176.1 40.8105C176.692 41.7475 177.678 42.2592 178.763 42.2858C179.175 41.5415 179.089 40.6178 179.122 39.807C179.981 40.4915 181.232 41.3621 182.397 41.5415C182.663 40.6776 182.796 39.7871 182.763 38.87C183.442 39.5079 184.447 39.9266 185.399 39.7405C185.399 38.9431 185.333 38.1057 185.446 37.3282C186.451 37.1421 187.516 37.8266 188.621 37.7269C188.681 36.6437 188.168 35.401 188.388 34.4108C189.886 35.082 191.67 35.2814 193.307 35.2216C193.354 34.5636 193.294 33.8725 193.38 33.2279C193.893 33.3608 194.599 33.7329 195.218 33.5867C195.457 32.7295 195.391 31.8522 195.377 30.975C196.189 31.1678 198.566 32.2776 199.258 31.6662C199.764 31.2143 199.571 30.0845 199.651 29.5329C199.757 28.8152 199.964 28.1972 199.95 27.4994C199.897 25.1535 198.779 24.7681 197.747 22.7212C196.469 20.1959 193.081 16.7535 191.19 14.5738C190.451 13.7231 189.739 12.8459 189 11.9886C186.544 9.61617 183.702 7.6225 180.453 6.8649C178.303 6.69212 176.073 7.01775 173.89 7.1706C166.708 9.85541 163.299 20.8871 164.211 32.3374L164.231 32.3108C164.231 32.3507 164.218 32.3905 164.218 32.4371C164.398 34.6168 164.737 36.8165 165.23 38.9697C165.237 38.9497 165.25 38.9364 165.256 38.9165C165.463 39.7605 165.749 40.5978 166.381 41.2092L166.375 41.1959Z" fill="white"/>
<path id="Hair" d="M172.159 8.38006C171.999 5.1769 176.379 5.05728 178.316 3.48228C179.514 2.50538 181.152 1.16297 182.123 0C182.243 1.68797 181.95 3.35601 180.552 4.44589C181.471 4.26646 182.283 3.66835 183.162 3.54209C183.348 4.4326 182.995 5.26329 182.063 5.41614C182.836 5.48259 183.621 5.41614 184.387 5.48924C184.14 6.95127 181.637 8.65253 180.333 8.97152C178.569 9.39684 176.459 9.09779 174.655 9.11772C174.795 9.41677 175.047 9.60949 175.394 9.70253" fill="white"/>
<g id="Face_3">
<path id="Vector_48" d="M185.865 20.0098C185.865 21.9304 184.307 23.4854 182.384 23.4854C180.46 23.4854 178.902 21.9304 178.902 20.0098C178.902 18.0892 180.46 16.5342 182.384 16.5342C184.307 16.5342 185.865 18.0892 185.865 20.0098Z" fill="#BFBFBF"/>
<path id="Vector_49" d="M180.328 15.5705C180.861 16.481 180.554 17.6439 179.642 18.1756C178.73 18.7072 177.566 18.4015 177.033 17.4911C176.501 16.5806 176.807 15.4177 177.719 14.886C178.631 14.3544 179.796 14.6601 180.328 15.5705Z" fill="#504E4E"/>
<path id="Vector_50" d="M169.085 18.9466C170.01 18.2554 172.013 18.0029 173.012 18.7804C172.899 19.2323 171.374 21.7311 170.862 21.8174C170.256 21.9105 168.672 19.9833 168.346 19.3918" fill="#898585"/>
</g>
</g>
<g id="Wing_2">
<path id="Vector_51" d="M185.812 48.0475C187.77 51.2905 189.933 54.7462 192.356 57.7101C193.468 59.0658 195.524 61.4649 197.222 61.9965C197.415 61.106 196.383 59.1589 196.05 58.3481C198.553 61.0861 202.88 66.3826 207.093 65.7845C207.113 64.8607 204.95 62.8737 204.051 62.4484C205.835 62.9136 207.626 64.7145 209.45 65.4522C210.688 65.9506 212.126 66.0835 213.41 65.9041C213.757 63.6778 211.194 62.3155 210.428 60.3883C211.573 61.4183 213.158 62.7342 213.73 60.9731C214.702 57.9693 210.355 55.2645 210.342 52.613C204.83 52.8854 198.413 49.9149 194.027 46.7383" fill="#504E4E"/>
<path id="Vector_52" d="M187.876 22.6016C185.313 24.0836 183.103 26.157 181.779 29.081C180.554 31.7858 180.361 34.6899 180.454 37.6339C180.56 40.8171 181.825 43.894 183.156 46.7649C183.889 48.3465 185.433 48.7386 186.804 49.9083C186.791 49.6026 186.831 49.2371 186.778 48.9446C186.738 50.5927 189.074 52.8323 190.286 53.7627C190.219 52.9918 189.806 52.2409 189.68 51.4367C190.572 52.5864 191.803 54.1814 192.875 54.9124C192.682 54.0551 192.169 53.1779 192.116 52.3538C194.073 54.2478 196.09 55.9757 198.134 57.7234C198.127 57.0124 198.014 56.2946 197.881 55.5969C199.971 57.9428 202.693 59.6507 205.449 61.0861C205.316 60.5212 205.03 60.0228 204.75 59.4978C205.323 60.6608 206.714 62.1361 207.939 62.5681C207.899 62.1959 208.105 62.0431 208.138 61.7241C208.698 61.6776 209.283 61.6909 209.842 61.6909C209.896 60.9532 209.763 60.2222 209.53 59.5443C210.262 60.9266 210.994 61.4915 212.498 61.2057C212.725 57.1054 211.839 52.1079 210.934 48.1605C209.49 41.8738 206.481 35.6203 203.079 30.2108C201.029 26.9478 194.486 19.3785 187.876 22.6016Z" fill="#898585"/>
</g>
</g>
</g>
</g>
<defs>
<clipPath id="clip0_245_101458">
<rect width="225" height="210" fill="white" transform="translate(0.289062)"/>
</clipPath>
</defs>
</svg>
