<svg width="16" height="16" viewBox="0 0 16 16" fill="none" xmlns="http://www.w3.org/2000/svg">
<path d="M2.09375 5.5625C1.67954 5.5625 1.34375 5.89829 1.34375 6.3125C1.34375 6.72671 1.67954 7.0625 2.09375 7.0625V5.5625ZM13.9063 7.0625C14.3205 7.0625 14.6563 6.72671 14.6563 6.3125C14.6563 5.89829 14.3205 5.5625 13.9063 5.5625V7.0625ZM2.16461 9.35931C1.7504 9.35931 1.41461 9.69509 1.41461 10.1093C1.41461 10.5235 1.7504 10.8593 2.16461 10.8593V9.35931ZM13.9771 10.8593C14.3913 10.8593 14.7271 10.5235 14.7271 10.1093C14.7271 9.69509 14.3913 9.35931 13.9771 9.35931V10.8593ZM14 8C14 11.3137 11.3137 14 8 14V15.5C12.1421 15.5 15.5 12.1421 15.5 8H14ZM8 14C4.68629 14 2 11.3137 2 8H0.5C0.5 12.1421 3.85786 15.5 8 15.5V14ZM2 8C2 4.68629 4.68629 2 8 2V0.5C3.85786 0.5 0.5 3.85786 0.5 8H2ZM8 2C11.3137 2 14 4.68629 14 8H15.5C15.5 3.85786 12.1421 0.5 8 0.5V2ZM8 14C7.84041 14 7.62925 13.9292 7.37181 13.6803C7.11076 13.428 6.84141 13.0266 6.59894 12.4724C6.11499 11.3662 5.79688 9.78554 5.79688 8H4.29688C4.29688 9.94238 4.63984 11.7367 5.22471 13.0736C5.51665 13.7409 5.88365 14.328 6.32921 14.7588C6.77839 15.193 7.34411 15.5 8 15.5V14ZM5.79688 8C5.79688 6.21446 6.11499 4.63383 6.59894 3.52764C6.84141 2.97344 7.11076 2.57204 7.37181 2.31966C7.62925 2.07077 7.84041 2 8 2V0.5C7.34411 0.5 6.77839 0.806986 6.32921 1.24124C5.88365 1.672 5.51665 2.25911 5.22471 2.92642C4.63984 4.26325 4.29688 6.05762 4.29688 8H5.79688ZM8 15.5C8.65589 15.5 9.22161 15.193 9.67079 14.7588C10.1164 14.328 10.4833 13.7409 10.7753 13.0736C11.3602 11.7367 11.7031 9.94238 11.7031 8H10.2031C10.2031 9.78554 9.88501 11.3662 9.40106 12.4724C9.15859 13.0266 8.88924 13.428 8.62819 13.6803C8.37075 13.9292 8.15959 14 8 14V15.5ZM11.7031 8C11.7031 6.05762 11.3602 4.26325 10.7753 2.92642C10.4833 2.25911 10.1164 1.672 9.67079 1.24124C9.22161 0.806986 8.65589 0.5 8 0.5V2C8.15959 2 8.37075 2.07077 8.62819 2.31966C8.88924 2.57204 9.15859 2.97344 9.40106 3.52764C9.88501 4.63383 10.2031 6.21446 10.2031 8H11.7031ZM2.09375 7.0625H13.9063V5.5625H2.09375V7.0625ZM2.16461 10.8593H13.9771V9.35931H2.16461V10.8593Z" fill="black"/>
</svg>
