<svg width="71" height="65" viewBox="0 0 71 65" fill="none" xmlns="http://www.w3.org/2000/svg">
<path d="M1.47513 64.9672C1.72415 65.035 1.98871 64.9975 2.21146 64.8629C2.43422 64.7283 2.59722 64.5074 2.66513 64.2481C4.66791 56.442 12.8074 54.4189 17.6724 53.2083C18.8915 52.9056 19.854 52.6659 20.4801 52.3836C26.0218 49.8709 27.8282 45.8287 28.3687 42.8794C28.4009 42.7039 28.3881 42.5227 28.3318 42.354C28.2755 42.1853 28.1776 42.0351 28.0479 41.9186C25.1624 39.3166 22.7279 35.4105 21.1918 30.9173C21.1485 30.7885 21.0803 30.6703 20.9915 30.57C18.9596 28.2625 17.7929 25.823 17.7929 23.8791C17.7929 22.7436 18.2032 21.9819 19.1268 21.407C19.2651 21.3206 19.3808 21.1997 19.4632 21.055C19.5457 20.9103 19.5925 20.7465 19.5993 20.5783C20.029 10.2311 27.0835 2.08578 35.7362 2.03297L35.9443 2.04719C44.6399 2.17312 51.6496 10.4931 51.9004 20.9866C51.9039 21.13 51.9366 21.271 51.9963 21.4002C52.0559 21.5295 52.1412 21.6439 52.2465 21.7361C52.8551 22.2744 53.139 22.9569 53.139 23.8831C53.139 25.5102 52.3087 27.5109 50.8037 29.5137C50.732 29.6101 50.6768 29.7187 50.6404 29.8347C49.0849 34.9859 46.2926 39.5339 42.9832 42.3167C42.8461 42.4324 42.7415 42.5847 42.6806 42.7574C42.6197 42.9301 42.6046 43.1169 42.6371 43.2978C43.1776 46.2452 44.984 50.2853 50.5257 52.802C51.181 53.0986 52.1979 53.3301 53.4871 53.6206C58.3035 54.7094 66.3632 56.5355 68.3407 64.2481C68.3739 64.377 68.431 64.4977 68.5089 64.6035C68.5868 64.7092 68.6838 64.7979 68.7945 64.8645C68.9052 64.9311 69.0273 64.9743 69.154 64.9915C69.2806 65.0088 69.4093 64.9998 69.5326 64.9651C69.656 64.9305 69.7715 64.8708 69.8728 64.7894C69.974 64.7081 70.0589 64.6067 70.1227 64.4911C70.1864 64.3755 70.2277 64.2478 70.2443 64.1155C70.2608 63.9832 70.2522 63.8488 70.219 63.72C67.9343 54.8089 58.8032 52.7431 53.8993 51.6341C52.7618 51.3761 51.7799 51.1547 51.3015 50.9353C47.6849 49.2941 45.4565 46.7936 44.669 43.4908C48.0271 40.4784 50.8368 35.8309 52.4429 30.6187C54.1482 28.3031 55.0854 25.9184 55.0854 23.8811C55.0854 22.5222 54.6654 21.3887 53.8332 20.5031C53.3704 9.12 45.5946 0.156094 35.9443 0.011875L35.6546 0.0078125C26.1793 0.060625 18.3704 8.78891 17.6879 19.975C16.4707 20.9094 15.8524 22.2195 15.8524 23.8831C15.8524 26.2861 17.1532 29.1603 19.4301 31.7969C21.0032 36.3123 23.4415 40.2794 26.3446 43.0561C25.561 46.3711 23.3307 48.8797 19.7062 50.523C19.2376 50.7362 18.3043 50.9698 17.2232 51.238C12.2824 52.4648 3.08902 54.75 0.786798 63.7241C0.72031 63.9843 0.755474 64.2614 0.884556 64.4945C1.01364 64.7276 1.22607 64.8977 1.47513 64.9672Z" fill="#BFC9D5"/>
</svg>
