<svg width="29" height="29" viewBox="0 0 29 29" fill="none" xmlns="http://www.w3.org/2000/svg">
<path d="M17.025 2.54063C19.4803 2.54063 21.2248 2.5432 22.5484 2.72088C23.8423 2.89469 24.5891 3.22171 25.1337 3.76632C25.7607 4.39334 26.0349 4.88001 26.1856 5.7465C26.3555 6.72371 26.3594 8.1155 26.3594 10.5875C26.3594 10.8436 26.4611 11.0892 26.6422 11.2703C26.8233 11.4514 27.0689 11.5531 27.325 11.5531C27.5811 11.5531 27.8267 11.4514 28.0078 11.2703C28.1889 11.0892 28.2906 10.8436 28.2906 10.5875V10.4639C28.2906 8.1464 28.2906 6.57823 28.0872 5.41432C27.8619 4.12039 27.3804 3.28223 26.4997 2.40157C25.5354 1.43595 24.3135 1.00979 22.8046 0.806362C21.3368 0.609375 19.4635 0.609375 17.0971 0.609375H17.025C16.7689 0.609375 16.5233 0.71111 16.3422 0.8922C16.1611 1.07329 16.0594 1.3189 16.0594 1.575C16.0594 1.8311 16.1611 2.07671 16.3422 2.2578C16.5233 2.43889 16.7689 2.54062 17.025 2.54063ZM1.575 17.3469C1.8311 17.3469 2.07671 17.4486 2.2578 17.6297C2.43889 17.8108 2.54063 18.0564 2.54063 18.3125C2.54063 20.7845 2.54449 22.1763 2.71444 23.1535C2.86636 24.02 3.13931 24.5067 3.76632 25.1337C4.31094 25.6783 5.05769 26.0053 6.35291 26.1791C7.67646 26.3568 9.41974 26.3594 11.875 26.3594C12.1311 26.3594 12.3767 26.4611 12.5578 26.6422C12.7389 26.8233 12.8406 27.0689 12.8406 27.325C12.8406 27.5811 12.7389 27.8267 12.5578 28.0078C12.3767 28.1889 12.1311 28.2906 11.875 28.2906H11.8029C9.43648 28.2906 7.56188 28.2906 6.09541 28.0936C4.58646 27.8902 3.36463 27.4628 2.40029 26.4997C1.51964 25.6178 1.03811 24.7796 0.8128 23.4857C0.609375 22.3218 0.609375 20.7523 0.609375 18.4361V18.3125C0.609375 18.0564 0.71111 17.8108 0.8922 17.6297C1.07329 17.4486 1.3189 17.3469 1.575 17.3469ZM27.325 17.3469C27.5811 17.3469 27.8267 17.4486 28.0078 17.6297C28.1889 17.8108 28.2906 18.0564 28.2906 18.3125V18.4361C28.2906 20.7536 28.2906 22.3218 28.0872 23.4857C27.8619 24.7796 27.3804 25.6178 26.4997 26.4984C25.5354 27.4641 24.3135 27.8902 22.8046 28.0936C21.3368 28.2906 19.4635 28.2906 17.0971 28.2906H17.025C16.7689 28.2906 16.5233 28.1889 16.3422 28.0078C16.1611 27.8267 16.0594 27.5811 16.0594 27.325C16.0594 27.0689 16.1611 26.8233 16.3422 26.6422C16.5233 26.4611 16.7689 26.3594 17.025 26.3594C19.4803 26.3594 21.2248 26.3568 22.5484 26.1791C23.8423 26.0053 24.5891 25.6783 25.1337 25.1337C25.7607 24.5067 26.0349 24.02 26.1856 23.1535C26.3555 22.1763 26.3594 20.7845 26.3594 18.3125C26.3594 18.0564 26.4611 17.8108 26.6422 17.6297C26.8233 17.4486 27.0689 17.3469 27.325 17.3469ZM11.8029 0.609375H11.875C12.1311 0.609375 12.3767 0.71111 12.5578 0.8922C12.7389 1.07329 12.8406 1.3189 12.8406 1.575C12.8406 1.8311 12.7389 2.07671 12.5578 2.2578C12.3767 2.43889 12.1311 2.54063 11.875 2.54063C9.41974 2.54063 7.67646 2.5432 6.35162 2.72088C5.05769 2.89469 4.31094 3.22171 3.76632 3.76632C3.13931 4.39334 2.86508 4.88001 2.71444 5.7465C2.54449 6.72371 2.54063 8.1155 2.54063 10.5875C2.54063 10.8436 2.43889 11.0892 2.2578 11.2703C2.07671 11.4514 1.8311 11.5531 1.575 11.5531C1.3189 11.5531 1.07329 11.4514 0.8922 11.2703C0.71111 11.0892 0.609375 10.8436 0.609375 10.5875V10.4639C0.609375 8.1464 0.609375 6.57823 0.8128 5.41432C1.03811 4.12039 1.51964 3.28223 2.40029 2.40157C3.36463 1.43595 4.58646 1.00979 6.09541 0.806362C7.56316 0.609375 9.43648 0.609375 11.8029 0.609375ZM1.575 13.4844C1.3189 13.4844 1.07329 13.5861 0.8922 13.7672C0.71111 13.9483 0.609375 14.1939 0.609375 14.45C0.609375 14.7061 0.71111 14.9517 0.8922 15.1328C1.07329 15.3139 1.3189 15.4156 1.575 15.4156H27.325C27.5811 15.4156 27.8267 15.3139 28.0078 15.1328C28.1889 14.9517 28.2906 14.7061 28.2906 14.45C28.2906 14.1939 28.1889 13.9483 28.0078 13.7672C27.8267 13.5861 27.5811 13.4844 27.325 13.4844H1.575Z" fill="white"/>
</svg>
