<svg width="25" height="25" viewBox="0 0 25 25" fill="none" xmlns="http://www.w3.org/2000/svg">
<path d="M3.55078 11.7207V16.2107C3.55078 20.7007 5.35078 22.5007 9.84078 22.5007H15.2308C19.7208 22.5007 21.5208 20.7007 21.5208 16.2107V11.7207" stroke="white" stroke-width="1.5" stroke-linecap="round" stroke-linejoin="round"/>
<path d="M12.5395 12.5C14.3695 12.5 15.7195 11.01 15.5395 9.18L14.8795 2.5H10.2095L9.53954 9.18C9.35954 11.01 10.7095 12.5 12.5395 12.5Z" stroke="white" stroke-width="1.5" stroke-linecap="round" stroke-linejoin="round"/>
<path d="M18.8498 12.5C20.8698 12.5 22.3498 10.86 22.1498 8.85L21.8698 6.1C21.5098 3.5 20.5098 2.5 17.8898 2.5H14.8398L15.5398 9.51C15.7098 11.16 17.1998 12.5 18.8498 12.5Z" stroke="white" stroke-width="1.5" stroke-linecap="round" stroke-linejoin="round"/>
<path d="M6.17748 12.5C7.82748 12.5 9.31748 11.16 9.47748 9.51L9.69748 7.3L10.1775 2.5H7.12748C4.50748 2.5 3.50748 3.5 3.14748 6.1L2.87748 8.85C2.67748 10.86 4.15748 12.5 6.17748 12.5Z" stroke="white" stroke-width="1.5" stroke-linecap="round" stroke-linejoin="round"/>
<path d="M12.5391 17.5C10.8691 17.5 10.0391 18.33 10.0391 20V22.5H15.0391V20C15.0391 18.33 14.2091 17.5 12.5391 17.5Z" stroke="white" stroke-width="1.5" stroke-linecap="round" stroke-linejoin="round"/>
</svg>
