<svg width="30" height="29" viewBox="0 0 30 29" fill="none" xmlns="http://www.w3.org/2000/svg">
<path d="M18.7222 15.3022L18.7108 15.3148L18.6998 15.3277C18.2315 15.8812 17.6919 16.3356 17.0785 16.6952C16.5214 17.0218 15.9226 17.1842 15.2632 17.1842C14.5923 17.1842 13.9855 17.0283 13.4252 16.7192C12.8226 16.3867 12.2905 15.9497 11.8265 15.4014L11.8212 15.3951L11.8157 15.3889C11.1706 14.6515 10.6001 13.8565 10.1041 13.0028C9.54053 12.033 8.8788 11.129 8.11993 10.2916L8.11996 10.2916L8.11449 10.2857C7.2562 9.35382 6.39173 8.40965 5.52109 7.45317C4.81413 6.67652 4.47368 5.79801 4.47368 4.77369C4.47368 3.85774 4.76268 3.09386 5.34657 2.4334C5.91094 1.79501 6.56781 1.5 7.37895 1.5C8.64941 1.5 9.90744 1.60585 11.1536 1.81747C12.5109 2.04796 13.881 2.16316 15.2632 2.16316C16.6453 2.16316 18.0154 2.04796 19.3727 1.81747C20.6189 1.60585 21.8769 1.5 23.1474 1.5C23.9585 1.5 24.6154 1.79501 25.1797 2.43339C25.7636 3.09386 26.0526 3.85774 26.0526 4.77369C26.0526 5.79801 25.7122 6.67652 25.0052 7.45317C24.1354 8.4087 23.2718 9.35195 22.4144 10.2829C21.6512 11.0991 20.9922 11.9889 20.4385 12.9513C19.9592 13.7843 19.3877 14.5678 18.7222 15.3022ZM26.3158 16.2368C27.0893 16.2368 27.7047 16.4926 28.2245 17.0124C28.7442 17.5321 29 18.1475 29 18.9211C29 19.6946 28.7442 20.31 28.2245 20.8297C27.7047 21.3495 27.0893 21.6053 26.3158 21.6053C25.5423 21.6053 24.9269 21.3495 24.4071 20.8297C23.8874 20.31 23.6316 19.6946 23.6316 18.9211C23.6316 18.1475 23.8874 17.5321 24.4071 17.0124C24.9269 16.4926 25.5423 16.2368 26.3158 16.2368ZM19.6842 22.1316C20.4577 22.1316 21.0731 22.3874 21.5929 22.9071C22.1126 23.4269 22.3684 24.0423 22.3684 24.8158C22.3684 25.5893 22.1126 26.2047 21.5929 26.7245C21.0731 27.2442 20.4577 27.5 19.6842 27.5C18.9107 27.5 18.2953 27.2442 17.7755 26.7245C17.2558 26.2047 17 25.5893 17 24.8158C17 24.0423 17.2558 23.4269 17.7755 22.9071C18.2953 22.3874 18.9107 22.1316 19.6842 22.1316ZM10.8421 22.1316C11.6156 22.1316 12.231 22.3874 12.7508 22.9071C13.2705 23.4269 13.5263 24.0423 13.5263 24.8158C13.5263 25.5893 13.2705 26.2047 12.7508 26.7245C12.231 27.2442 11.6156 27.5 10.8421 27.5C10.0686 27.5 9.45317 27.2442 8.93342 26.7245C8.41368 26.2047 8.1579 25.5893 8.1579 24.8158C8.1579 24.0423 8.41368 23.4269 8.93342 22.9071C9.45317 22.3874 10.0686 22.1316 10.8421 22.1316ZM4.21053 16.2368C4.98404 16.2368 5.59947 16.4926 6.11921 17.0124C6.63895 17.5321 6.89474 18.1475 6.89474 18.9211C6.89474 19.6946 6.63895 20.31 6.11921 20.8297C5.59947 21.3495 4.98404 21.6053 4.21053 21.6053C3.43701 21.6053 2.82159 21.3495 2.30184 20.8297C1.7821 20.31 1.52632 19.6946 1.52632 18.9211C1.52632 18.1475 1.7821 17.5321 2.30184 17.0124C2.82159 16.4926 3.43701 16.2368 4.21053 16.2368Z" fill="#FFBA44" stroke="#FFBA44" stroke-width="2"/>
</svg>
