<svg width="30" height="29" viewBox="0 0 30 29" fill="none" xmlns="http://www.w3.org/2000/svg">
<path d="M11.2778 13.6978L11.2892 13.6852L11.3002 13.6723C11.7685 13.1188 12.3081 12.6644 12.9215 12.3048C13.4786 11.9782 14.0774 11.8158 14.7368 11.8158C15.4077 11.8158 16.0145 11.9717 16.5748 12.2808C17.1774 12.6133 17.7095 13.0503 18.1735 13.5986L18.1788 13.6049L18.1843 13.6111C18.8294 14.3485 19.3999 15.1435 19.8959 15.9972C20.4595 16.967 21.1212 17.871 21.8801 18.7084L21.88 18.7084L21.8855 18.7143C22.7438 19.6462 23.6083 20.5904 24.4789 21.5468C25.1859 22.3235 25.5263 23.202 25.5263 24.2263C25.5263 25.1423 25.2373 25.9061 24.6534 26.5666C24.0891 27.205 23.4322 27.5 22.6211 27.5C21.3506 27.5 20.0926 27.3942 18.8464 27.1825C17.489 26.952 16.119 26.8368 14.7368 26.8368C13.3547 26.8368 11.9846 26.952 10.6273 27.1825C9.38113 27.3942 8.1231 27.5 6.85263 27.5C6.0415 27.5 5.38462 27.205 4.82026 26.5666C4.23637 25.9061 3.94737 25.1423 3.94737 24.2263C3.94737 23.202 4.28782 22.3235 4.99477 21.5468C5.86455 20.5913 6.72817 19.6481 7.58562 18.7171C8.34875 17.9009 9.0078 17.0111 9.56151 16.0487C10.0408 15.2157 10.6123 14.4322 11.2778 13.6978ZM3.68421 12.7632C2.91069 12.7632 2.29527 12.5074 1.77553 11.9876C1.25578 11.4679 1 10.8525 1 10.0789C1 9.30543 1.25578 8.69001 1.77553 8.17026C2.29527 7.65052 2.91069 7.39474 3.68421 7.39474C4.45773 7.39474 5.07315 7.65052 5.59289 8.17026C6.11264 8.69001 6.36842 9.30543 6.36842 10.0789C6.36842 10.8525 6.11264 11.4679 5.59289 11.9876C5.07315 12.5074 4.45773 12.7632 3.68421 12.7632ZM10.3158 6.86842C9.54227 6.86842 8.92685 6.61264 8.40711 6.09289C7.88736 5.57315 7.63158 4.95773 7.63158 4.18421C7.63158 3.41069 7.88736 2.79527 8.40711 2.27553C8.92685 1.75578 9.54227 1.5 10.3158 1.5C11.0893 1.5 11.7047 1.75578 12.2245 2.27553C12.7442 2.79527 13 3.41069 13 4.18421C13 4.95773 12.7442 5.57315 12.2245 6.09289C11.7047 6.61264 11.0893 6.86842 10.3158 6.86842ZM19.1579 6.86842C18.3844 6.86842 17.769 6.61264 17.2492 6.09289C16.7295 5.57315 16.4737 4.95773 16.4737 4.18421C16.4737 3.41069 16.7295 2.79527 17.2492 2.27553C17.769 1.75578 18.3844 1.5 19.1579 1.5C19.9314 1.5 20.5468 1.75578 21.0666 2.27553C21.5863 2.79527 21.8421 3.41069 21.8421 4.18421C21.8421 4.95773 21.5863 5.57315 21.0666 6.09289C20.5468 6.61264 19.9314 6.86842 19.1579 6.86842ZM25.7895 12.7632C25.016 12.7632 24.4005 12.5074 23.8808 11.9876C23.361 11.4679 23.1053 10.8525 23.1053 10.0789C23.1053 9.30543 23.361 8.69001 23.8808 8.17026C24.4005 7.65052 25.016 7.39474 25.7895 7.39474C26.563 7.39474 27.1784 7.65052 27.6982 8.17026C28.2179 8.69001 28.4737 9.30543 28.4737 10.0789C28.4737 10.8525 28.2179 11.4679 27.6982 11.9876C27.1784 12.5074 26.563 12.7632 25.7895 12.7632Z" fill="#88EDFF" stroke="#88EDFF" stroke-width="2"/>
</svg>
