<svg width="30" height="30" viewBox="0 0 30 30" fill="none" xmlns="http://www.w3.org/2000/svg">
<circle cx="15" cy="15" r="15" fill="#D97C5E"/>
<path fill-rule="evenodd" clip-rule="evenodd" d="M12.4325 10.6174C12.5882 9.85325 13.2684 9.3125 14.0472 9.3125H15.9535C16.7322 9.3125 17.4118 9.85325 17.5682 10.6174C17.5854 10.7016 17.6304 10.7775 17.696 10.8329C17.7616 10.8884 17.844 10.9201 17.9298 10.9231H17.9491C18.7675 10.9593 19.3963 11.0596 19.9213 11.4043C20.2521 11.6213 20.5367 11.9002 20.7584 12.2262C21.0343 12.6311 21.1557 13.0966 21.214 13.6589C21.2712 14.209 21.2712 14.8979 21.2712 15.7706V15.8202C21.2712 16.6928 21.2712 17.3823 21.214 17.9318C21.1557 18.4942 21.0343 18.9597 20.7584 19.3651C20.536 19.6914 20.2516 19.9706 19.9213 20.187C19.5112 20.4559 19.0405 20.5749 18.47 20.6315C17.9112 20.6875 17.2106 20.6875 16.3204 20.6875H13.6802C12.7901 20.6875 12.0895 20.6875 11.5307 20.6315C10.9602 20.5749 10.4894 20.4565 10.0793 20.187C9.74899 19.9705 9.46454 19.691 9.24224 19.3645C8.96633 18.9597 8.84499 18.4942 8.78666 17.9318C8.72949 17.3823 8.72949 16.6928 8.72949 15.8202V15.7706C8.72949 14.8979 8.72949 14.209 8.78666 13.6589C8.84499 13.0966 8.96633 12.6311 9.24224 12.2262C9.46454 11.8998 9.74899 11.6203 10.0793 11.4037C10.6043 11.0596 11.2332 10.9592 12.0516 10.9237L12.0615 10.9231H12.0708C12.1567 10.9201 12.239 10.8884 12.3046 10.8329C12.3702 10.7775 12.4153 10.7016 12.4325 10.6174ZM14.0472 10.1875C13.6738 10.1875 13.3606 10.4459 13.29 10.7918C13.1762 11.3518 12.6792 11.7928 12.0813 11.7981C11.295 11.8331 10.8738 11.9293 10.5588 12.1358C10.3248 12.2894 10.1233 12.4874 9.96558 12.7186C9.80458 12.9548 9.70774 13.2576 9.65641 13.7493C9.60508 14.2487 9.60449 14.8927 9.60449 15.7957C9.60449 16.6987 9.60449 17.3421 9.65699 17.8414C9.70774 18.3332 9.80458 18.6359 9.96616 18.8727C10.1225 19.1026 10.3237 19.3009 10.5594 19.4555C10.8027 19.6147 11.1142 19.711 11.6176 19.7612C12.1274 19.8119 12.7842 19.8125 13.7042 19.8125H16.2965C17.2158 19.8125 17.8727 19.8125 18.3831 19.7612C18.8865 19.711 19.198 19.6153 19.4412 19.4555C19.6769 19.3009 19.8787 19.1026 20.0351 18.8722C20.1961 18.6359 20.2929 18.3332 20.3442 17.8414C20.3956 17.3421 20.3962 16.6981 20.3962 15.7957C20.3962 14.8927 20.3962 14.2487 20.3437 13.7493C20.2929 13.2576 20.1961 12.9548 20.0345 12.7186C19.877 12.4871 19.6754 12.2888 19.4412 12.1353C19.1274 11.9293 18.7062 11.8331 17.9187 11.7981C17.3214 11.7922 16.8244 11.3524 16.7107 10.7918C16.6733 10.6193 16.5776 10.465 16.4397 10.3549C16.3017 10.2448 16.13 10.1857 15.9535 10.1875H14.0472ZM15.0003 14.2708C14.6522 14.2708 14.3184 14.4091 14.0722 14.6553C13.8261 14.9014 13.6878 15.2352 13.6878 15.5833C13.6878 15.9314 13.8261 16.2653 14.0722 16.5114C14.3184 16.7576 14.6522 16.8958 15.0003 16.8958C15.3484 16.8958 15.6823 16.7576 15.9284 16.5114C16.1745 16.2653 16.3128 15.9314 16.3128 15.5833C16.3128 15.2352 16.1745 14.9014 15.9284 14.6553C15.6823 14.4091 15.3484 14.2708 15.0003 14.2708ZM12.8128 15.5833C12.8128 15.0032 13.0433 14.4468 13.4535 14.0365C13.8638 13.6263 14.4202 13.3958 15.0003 13.3958C15.5805 13.3958 16.1369 13.6263 16.5471 14.0365C16.9574 14.4468 17.1878 15.0032 17.1878 15.5833C17.1878 16.1635 16.9574 16.7199 16.5471 17.1301C16.1369 17.5404 15.5805 17.7708 15.0003 17.7708C14.4202 17.7708 13.8638 17.5404 13.4535 17.1301C13.0433 16.7199 12.8128 16.1635 12.8128 15.5833ZM18.0628 13.8333C18.0628 13.7173 18.1089 13.606 18.191 13.524C18.273 13.4419 18.3843 13.3958 18.5003 13.3958H19.0837C19.1997 13.3958 19.311 13.4419 19.393 13.524C19.4751 13.606 19.5212 13.7173 19.5212 13.8333C19.5212 13.9494 19.4751 14.0606 19.393 14.1427C19.311 14.2247 19.1997 14.2708 19.0837 14.2708H18.5003C18.3843 14.2708 18.273 14.2247 18.191 14.1427C18.1089 14.0606 18.0628 13.9494 18.0628 13.8333Z" fill="white"/>
</svg>
