<svg width="21" height="21" viewBox="0 0 21 21" fill="none" xmlns="http://www.w3.org/2000/svg">
<path d="M6.91016 14.1004L14.1102 6.90039M7.46406 7.44973L7.44991 7.43544M13.5746 13.6231L13.5604 13.6088M6.43301 2.88772L5.41511 2.94971C4.09367 3.03019 3.03995 4.0839 2.95947 5.40534L2.89748 6.42325C2.86192 7.00716 2.63195 7.56236 2.24421 8.00039L1.56827 8.764C0.690783 9.7553 0.690784 11.2455 1.56827 12.2368L2.24421 13.0004C2.63195 13.4384 2.86192 13.9936 2.89748 14.5775L2.95947 15.5954C3.03995 16.9169 4.09367 17.9706 5.41511 18.0511L6.43301 18.1131C7.01692 18.1486 7.57213 18.3786 8.01016 18.7663L8.77376 19.4423C9.76507 20.3198 11.2552 20.3198 12.2465 19.4423L13.0102 18.7663C13.4482 18.3786 14.0034 18.1486 14.5873 18.1131L15.6052 18.0511C16.9266 17.9706 17.9804 16.9169 18.0608 15.5954L18.1228 14.5775C18.1584 13.9936 18.3884 13.4384 18.7761 13.0004L19.452 12.2368C20.3295 11.2455 20.3295 9.7553 19.452 8.76399L18.7761 8.00039C18.3884 7.56236 18.1584 7.00715 18.1228 6.42325L18.0608 5.40534C17.9804 4.0839 16.9266 3.03019 15.6052 2.94971L14.5873 2.88772C14.0034 2.85215 13.4482 2.62218 13.0102 2.23444L12.2465 1.55851C11.2552 0.681018 9.76507 0.681018 8.77376 1.55851L8.01016 2.23444C7.57213 2.62218 7.01692 2.85215 6.43301 2.88772Z" stroke="white" stroke-width="1.5" stroke-linecap="round"/>
</svg>
