<svg width="22" height="23" viewBox="0 0 22 23" fill="none" xmlns="http://www.w3.org/2000/svg">
<path d="M20.6359 12.4579L20.3572 14.3952C19.8697 17.7827 19.626 19.4764 18.451 20.4882C17.2759 21.5 15.5526 21.5 12.1061 21.5H9.89393C6.44737 21.5 4.72409 21.5 3.54903 20.4882C2.37396 19.4764 2.13025 17.7827 1.64284 14.3952L1.36407 12.4579C0.984628 9.82081 0.794906 8.50229 1.33537 7.37495C1.87583 6.2476 3.02619 5.56234 5.32691 4.19181L6.71175 3.36687C8.80104 2.12229 9.84569 1.5 11 1.5C12.1543 1.5 13.199 2.12229 15.2882 3.36687L16.6731 4.19181C18.9738 5.56234 20.1242 6.2476 20.6646 7.37495" stroke="white" stroke-width="1.5" stroke-linecap="round"/>
</svg>
