<svg width="18" height="18" viewBox="0 0 18 18" fill="none" xmlns="http://www.w3.org/2000/svg">
<rect width="18" height="18" fill="white"/>
<path d="M3.09375 6.5625C2.67954 6.5625 2.34375 6.89829 2.34375 7.3125C2.34375 7.72671 2.67954 8.0625 3.09375 8.0625V6.5625ZM14.9063 8.0625C15.3205 8.0625 15.6563 7.72671 15.6563 7.3125C15.6563 6.89829 15.3205 6.5625 14.9063 6.5625V8.0625ZM3.16461 10.3593C2.7504 10.3593 2.41461 10.6951 2.41461 11.1093C2.41461 11.5235 2.7504 11.8593 3.16461 11.8593V10.3593ZM14.9771 11.8593C15.3913 11.8593 15.7271 11.5235 15.7271 11.1093C15.7271 10.6951 15.3913 10.3593 14.9771 10.3593V11.8593ZM15 9C15 12.3137 12.3137 15 9 15V16.5C13.1421 16.5 16.5 13.1421 16.5 9H15ZM9 15C5.68629 15 3 12.3137 3 9H1.5C1.5 13.1421 4.85786 16.5 9 16.5V15ZM3 9C3 5.68629 5.68629 3 9 3V1.5C4.85786 1.5 1.5 4.85786 1.5 9H3ZM9 3C12.3137 3 15 5.68629 15 9H16.5C16.5 4.85786 13.1421 1.5 9 1.5V3ZM9 15C8.84041 15 8.62925 14.9292 8.37181 14.6803C8.11076 14.428 7.84141 14.0266 7.59894 13.4724C7.11499 12.3662 6.79688 10.7855 6.79688 9H5.29688C5.29688 10.9424 5.63984 12.7367 6.22471 14.0736C6.51665 14.7409 6.88365 15.328 7.32921 15.7588C7.77839 16.193 8.34411 16.5 9 16.5V15ZM6.79688 9C6.79688 7.21446 7.11499 5.63383 7.59894 4.52764C7.84141 3.97344 8.11076 3.57204 8.37181 3.31966C8.62925 3.07077 8.84041 3 9 3V1.5C8.34411 1.5 7.77839 1.80699 7.32921 2.24124C6.88365 2.672 6.51665 3.25911 6.22471 3.92642C5.63984 5.26325 5.29688 7.05762 5.29688 9H6.79688ZM9 16.5C9.65589 16.5 10.2216 16.193 10.6708 15.7588C11.1164 15.328 11.4833 14.7409 11.7753 14.0736C12.3602 12.7367 12.7031 10.9424 12.7031 9H11.2031C11.2031 10.7855 10.885 12.3662 10.4011 13.4724C10.1586 14.0266 9.88924 14.428 9.62819 14.6803C9.37075 14.9292 9.15959 15 9 15V16.5ZM12.7031 9C12.7031 7.05762 12.3602 5.26325 11.7753 3.92642C11.4833 3.25911 11.1164 2.672 10.6708 2.24124C10.2216 1.80699 9.65589 1.5 9 1.5V3C9.15959 3 9.37075 3.07077 9.62819 3.31966C9.88924 3.57204 10.1586 3.97344 10.4011 4.52764C10.885 5.63383 11.2031 7.21446 11.2031 9H12.7031ZM3.09375 8.0625H14.9063V6.5625H3.09375V8.0625ZM3.16461 11.8593H14.9771V10.3593H3.16461V11.8593Z" fill="black"/>
</svg>
